  0
SECTION
  2
HEADER
  9
$ACADVER
  1
AC1015
  9
$ACADMAINTVER
 70
     6
  9
$DWGCODEPAGE
  3
ANSI_1252
  9
$INSBASE
 10
0.0
 20
0.0
 30
0.0
  9
$EXTMIN
 10
0.0
 20
0.0
 30
0.0
  9
$EXTMAX
 10
272.164063
 20
191.658661
 30
2.0
  9
$LIMMIN
 10
0.0
 20
0.0
  9
$LIMMAX
 10
420.0
 20
297.0
  9
$ORTHOMODE
 70
     0
  9
$REGENMODE
 70
     1
  9
$FILLMODE
 70
     1
  9
$QTEXTMODE
 70
     0
  9
$MIRRTEXT
 70
     1
  9
$LTSCALE
 40
1.0
  9
$ATTMODE
 70
     1
  9
$TEXTSIZE
 40
2.5
  9
$TRACEWID
 40
1.0
  9
$TEXTSTYLE
  7
Standard
  9
$CLAYER
  8
0
  9
$CELTYPE
  6
ByLayer
  9
$CECOLOR
 62
   256
  9
$CELTSCALE
 40
1.0
  9
$DISPSILH
 70
     0
  9
$DIMSCALE
 40
1.0
  9
$DIMASZ
 40
2.5
  9
$DIMEXO
 40
0.625
  9
$DIMDLI
 40
3.75
  9
$DIMRND
 40
0.0
  9
$DIMDLE
 40
0.0
  9
$DIMEXE
 40
1.25
  9
$DIMTP
 40
0.0
  9
$DIMTM
 40
0.0
  9
$DIMTXT
 40
2.5
  9
$DIMCEN
 40
2.5
  9
$DIMTSZ
 40
0.0
  9
$DIMTOL
 70
     0
  9
$DIMLIM
 70
     0
  9
$DIMTIH
 70
     0
  9
$DIMTOH
 70
     0
  9
$DIMSE1
 70
     0
  9
$DIMSE2
 70
     0
  9
$DIMTAD
 70
     1
  9
$DIMZIN
 70
     8
  9
$DIMBLK
  1

  9
$DIMASO
 70
     1
  9
$DIMSHO
 70
     1
  9
$DIMPOST
  1

  9
$DIMAPOST
  1

  9
$DIMALT
 70
     0
  9
$DIMALTD
 70
     3
  9
$DIMALTF
 40
0.03937
  9
$DIMLFAC
 40
1.0
  9
$DIMTOFL
 70
     1
  9
$DIMTVP
 40
0.0
  9
$DIMTIX
 70
     0
  9
$DIMSOXD
 70
     0
  9
$DIMSAH
 70
     0
  9
$DIMBLK1
  1

  9
$DIMBLK2
  1

  9
$DIMSTYLE
  2

  9
$DIMCLRD
 70
     0
  9
$DIMCLRE
 70
     0
  9
$DIMCLRT
 70
     0
  9
$DIMTFAC
 40
1.0
  9
$DIMGAP
 40
0.625
  9
$DIMJUST
 70
     0
  9
$DIMSD1
 70
     0
  9
$DIMSD2
 70
     0
  9
$DIMTOLJ
 70
     0
  9
$DIMTZIN
 70
     8
  9
$DIMALTZ
 70
     0
  9
$DIMALTTZ
 70
     0
  9
$DIMUPT
 70
     0
  9
$DIMDEC
 70
     2
  9
$DIMTDEC
 70
     2
  9
$DIMALTU
 70
     2
  9
$DIMALTTD
 70
     3
  9
$DIMTXSTY
  7
Standard
  9
$DIMAUNIT
 70
     0
  9
$DIMADEC
 70
     0
  9
$DIMALTRND
 40
0.0
  9
$DIMAZIN
 70
     0
  9
$DIMDSEP
 70
    44
  9
$DIMATFIT
 70
     0
  9
$DIMFRAC
 70
     0
  9
$DIMLDRBLK
  1

  9
$DIMLUNIT
 70
     2
  9
$DIMLWD
 70
    -2
  9
$DIMLWE
 70
    -2
  9
$DIMTMOVE
 70
     0
  9
$LUNITS
 70
     2
  9
$LUPREC
 70
     4
  9
$SKETCHINC
 40
1.0
  9
$FILLETRAD
 40
2.5
  9
$AUNITS
 70
     0
  9
$AUPREC
 70
     0
  9
$MENU
  1
.
  9
$ELEVATION
 40
0.0
  9
$PELEVATION
 40
0.0
  9
$THICKNESS
 40
0.0
  9
$LIMCHECK
 70
     0
  9
$CHAMFERA
 40
2.5
  9
$CHAMFERB
 40
2.5
  9
$CHAMFERC
 40
0.0
  9
$CHAMFERD
 40
0.0
  9
$SKPOLY
 70
     0
  9
$TDCREATE
 40
0.000000000
  9
$TDUCREATE
 40
0.000000000
  9
$TDUPDATE
 40
0.000000000
  9
$TDUUPDATE
 40
0.000000000
  9
$TDINDWG
 40
0.0000000000
  9
$TDUSRTIMER
 40
0.0000000000
  9
$USRTIMER
 70
     1
  9
$ANGBASE
 50
0.0
  9
$ANGDIR
 70
     0
  9
$PDMODE
 70
     0
  9
$PDSIZE
 40
0.0
  9
$PLINEWID
 40
0.0
  9
$SPLFRAME
 70
     0
  9
$SPLINETYPE
 70
     6
  9
$SPLINESEGS
 70
     8
  9
$HANDSEED
  5
16A
  9
$SURFTAB1
 70
     6
  9
$SURFTAB2
 70
     6
  9
$SURFTYPE
 70
     6
  9
$SURFU
 70
     6
  9
$SURFV
 70
     6
  9
$UCSBASE
  2

  9
$UCSNAME
  2

  9
$UCSORG
 10
0.0
 20
0.0
 30
0.0
  9
$UCSXDIR
 10
1.0
 20
0.0
 30
0.0
  9
$UCSYDIR
 10
0.0
 20
1.0
 30
0.0
  9
$UCSORTHOREF
  2

  9
$UCSORTHOVIEW
 70
     1
  9
$UCSORGTOP
 10
0.0
 20
0.0
 30
0.0
  9
$UCSORGBOTTOM
 10
0.0
 20
0.0
 30
0.0
  9
$UCSORGLEFT
 10
0.0
 20
0.0
 30
0.0
  9
$UCSORGRIGHT
 10
0.0
 20
0.0
 30
0.0
  9
$UCSORGFRONT
 10
0.0
 20
0.0
 30
0.0
  9
$UCSORGBACK
 10
0.0
 20
0.0
 30
0.0
  9
$PUCSBASE
  2

  9
$PUCSNAME
  2

  9
$PUCSORG
 10
0.0
 20
0.0
 30
0.0
  9
$PUCSXDIR
 10
1.0
 20
0.0
 30
0.0
  9
$PUCSYDIR
 10
0.0
 20
1.0
 30
0.0
  9
$PUCSORTHOREF
  2

  9
$PUCSORTHOVIEW
 70
     0
  9
$PUCSORGTOP
 10
0.0
 20
0.0
 30
0.0
  9
$PUCSORGBOTTOM
 10
0.0
 20
0.0
 30
0.0
  9
$PUCSORGLEFT
 10
0.0
 20
0.0
 30
0.0
  9
$PUCSORGRIGHT
 10
0.0
 20
0.0
 30
0.0
  9
$PUCSORGFRONT
 10
0.0
 20
0.0
 30
0.0
  9
$PUCSORGBACK
 10
0.0
 20
0.0
 30
0.0
  9
$USERI1
 70
     0
  9
$USERI2
 70
     0
  9
$USERI3
 70
     0
  9
$USERI4
 70
     0
  9
$USERI5
 70
     0
  9
$USERR1
 40
0.0
  9
$USERR2
 40
0.0
  9
$USERR3
 40
0.0
  9
$USERR4
 40
0.0
  9
$USERR5
 40
0.0
  9
$WORLDVIEW
 70
     1
  9
$SHADEDGE
 70
     3
  9
$SHADEDIF
 70
    70
  9
$TILEMODE
 70
     1
  9
$MAXACTVP
 70
    48
  9
$PINSBASE
 10
0.0
 20
0.0
 30
0.0
  9
$PLIMCHECK
 70
     0
  9
$PEXTMIN
 10
0.0
 20
0.0
 30
0.0
  9
$PEXTMAX
 10
272.164063
 20
191.658661
 30
2.0
  9
$PLIMMIN
 10
0.0
 20
0.0
  9
$PLIMMAX
 10
420.0
 20
297.0
  9
$UNITMODE
 70
     0
  9
$VISRETAIN
 70
     0
  9
$PLINEGEN
 70
     0
  9
$PSLTSCALE
 70
     1
  9
$TREEDEPTH
 70
  3020
  9
$CMLSTYLE
  2
Standard
  9
$CMLJUST
 70
     0
  9
$CMLSCALE
 40
20.0
  9
$PROXYGRAPHICS
 70
     1
  9
$MEASUREMENT
 70
     1
  9
$CELWEIGHT
370
    -1
  9
$ENDCAPS
280
     0
  9
$JOINSTYLE
280
     0
  9
$LWDISPLAY
290
     0
  9
$INSUNITS
 70
     0
  9
$HYPERLINKBASE
  1

  9
$STYLESHEET
  1

  9
$XEDIT
290
     1
  9
$CEPSNTYPE
380
     0
  9
$PSTYLEMODE
290
     0
  9
$FINGERPRINTGUID
  2

  9
$VERSIONGUID
  2

  9
$EXTNAMES
290
     0
  9
$PSVPSCALE
 40
0.0
  0
ENDSEC
  0
SECTION
  2
CLASSES
  0
CLASS
  1
LWPOLYLINE
  2
AcDbPolyline
  3
AutoCAD 2000
 90
        0
280
     0
281
     1
  0
CLASS
  1
IMAGE
  2
AcDbRasterImage
  3
ISM
 90
      127
280
     0
281
     1
  0
CLASS
  1
OLE2FRAME
  2
AcDbOle2Frame
  3
AutoCAD 2000
 90
        0
280
     0
281
     1
  0
CLASS
  1
HATCH
  2
AcDbHatch
  3
AutoCAD 2000
 90
        0
280
     0
281
     1
  0
CLASS
  1
DICTIONARYVAR
  2
AcDbDictionaryVar
  3
AutoCAD 2000
 90
        0
280
     0
281
     0
  0
CLASS
  1
RASTERVARIABLES
  2
AcDbRasterVariables
  3
ISM
 90
        0
280
     0
281
     0
  0
CLASS
  1
IMAGEDEF
  2
AcDbRasterImageDef
  3
ISM
 90
        0
280
     0
281
     0
  0
CLASS
  1
IMAGEDEF_REACTOR
  2
AcDbRasterImageDefReactor
  3
ISM
 90
        1
280
     0
281
     0
  0
CLASS
  1
IDBUFFER
  2
AcDbIdBuffer
  3
AutoCAD 2000
 90
        0
280
     0
281
     0
  0
CLASS
  1
SPATIAL_FILTER
  2
AcDbSpatialFilter
  3
AutoCAD 2000
 90
        0
280
     0
281
     0
  0
CLASS
  1
XRECORD
  2
AcDbXrecord
  3
AutoCAD 2000
 90
        0
280
     0
281
     0
  0
CLASS
  1
SORTENTSTABLE
  2
AcDbSortentsTable
  3
AutoCAD 2000
 90
        0
280
     0
281
     0
  0
CLASS
  1
LAYER_INDEX
  2
AcDbLayerIndex
  3
AutoCAD 2000
 90
        0
280
     0
281
     0
  0
CLASS
  1
SPATIAL_INDEX
  2
AcDbSpatialIndex
  3
AutoCAD 2000
 90
        0
280
     0
281
     0
  0
CLASS
  1
OBJECT_PTR
  2
CAseDLPNTableRecord
  3
"ASE-LPNTableRecord"
 90
        1
280
     0
281
     0
  0
CLASS
  1
LAYOUT
  2
AcDbLayout
  3
AutoCAD 2000
 90
        0
280
     0
281
     0
  0
CLASS
  1
PLOTSETTINGS
  2
AcDbPlotSettings
  3
AutoCAD 2000
 90
        0
280
     0
281
     0
  0
CLASS
  1
ACDBDICTIONARYWDFLT
  2
AcDbDictionaryWithDefault
  3
AutoCAD 2000
 90
        0
280
     0
281
     0
  0
CLASS
  1
ACDBPLACEHOLDER
  2
AcDbPlaceHolder
  3
AutoCAD 2000
 90
        0
280
     0
281
     0
  0
CLASS
  1
VBA_PROJECT
  2
AcDbVbaProject
  3
acadvba
 90
        0
280
     0
281
     0
  0
CLASS
  1
WIPEOUT
  2
AcDbWipeout
  3
WipeOut|AutoCAD Express Tool|expresstools@autodesk.com
 90
      127
280
     0
281
     1
  0
CLASS
  1
WIPEOUTVARIABLES
  2
AcDbWipeoutVariables
  3
WipeOut|AutoCAD Express Tool|expresstools@autodesk.com
 90
        0
280
     0
281
     0
  0
CLASS
  1
RTEXT
  2
RText
  3
RText|AutoCAD Express Tool|expresstools@autodesk.com
 90
        0
280
     0
281
     1
  0
CLASS
  1
ARCALIGNEDTEXT
  2
AcDbArcAlignedText
  3
ATEXT|AutoCAD Express Tool|expresstools@autodesk.com
 90
        0
280
     0
281
     1
  0
ENDSEC
  0
SECTION
  2
TABLES
  0
TABLE
  2
VPORT
  5
7
100
AcDbSymbolTable
 70
     1
  0
VPORT
  5
15
100
AcDbSymbolTableRecord
100
AcDbViewportTableRecord
  2
*ACTIVE
 70
     0
 10
0.0
 20
0.0
 11
1.0
 21
1.0
 12
6.591288
 22
4.579184
 13
0.0
 23
0.0
 14
1.0
 24
1.0
 15
0.0
 25
0.0
 16
0.0
 26
0.0
 36
1.0
 17
0.0
 27
0.0
 37
0.0
 40
9.158369
 41
0.688564
 42
50.0
 43
0.0
 44
0.0
 50
0.0
 51
0.0
 71
     0
 72
   100
 73
     1
 74
     1
 75
     0
 76
     0
 77
     0
 78
     0
281
     0
 65
     0
110
0.0
120
0.0
130
0.0
111
1.0
121
0.0
131
0.0
112
0.0
122
1.0
132
0.0
345
0
346
0
 79
     0
146
0.0
  0
ENDTAB
  0
TABLE
  2
LTYPE
  5
4
100
AcDbSymbolTable
 70
     3
  0
LTYPE
  5
11
100
AcDbSymbolTableRecord
100
AcDbLinetypeTableRecord
  2
ByBlock
 70
    64
  3

 72
    65
 73
     0
 40
0.0
  0
LTYPE
  5
12
100
AcDbSymbolTableRecord
100
AcDbLinetypeTableRecord
  2
ByLayer
 70
    64
  3

 72
    65
 73
     0
 40
0.0
  0
LTYPE
  5
13
100
AcDbSymbolTableRecord
100
AcDbLinetypeTableRecord
  2
Continuous
 70
    64
  3
Solid line
 72
    65
 73
     0
 40
0.0
  0
ENDTAB
  0
TABLE
  2
LAYER
  5
2
100
AcDbSymbolTable
 70
     1
  0
LAYER
  5
14
100
AcDbSymbolTableRecord
100
AcDbLayerTableRecord
  2
0
 70
     0
 62
     7
  6
Continuous
290
     1
370
    -3
390
1D
  0
ENDTAB
  0
TABLE
  2
STYLE
  5
3
100
AcDbSymbolTable
 70
     1
  0
STYLE
  5
17
100
AcDbSymbolTableRecord
100
AcDbTextStyleTableRecord
  2
Standard
 70
     0
 40
0.0
 41
1.0
 50
0.0
 71
     0
 42
0.0
  3
txt
  4

  0
ENDTAB
  0
TABLE
  2
VIEW
  5
5
100
AcDbSymbolTable
 70
     0
  0
ENDTAB
  0
TABLE
  2
UCS
  5
6
100
AcDbSymbolTable
 70
     0
  0
ENDTAB
  0
TABLE
  2
APPID
  5
8
100
AcDbSymbolTable
 70
     1
  0
APPID
  5
16
100
AcDbSymbolTableRecord
100
AcDbRegAppTableRecord
  2
ACAD
 70
     0
  0
ENDTAB
  0
TABLE
  2
DIMSTYLE
  5
9
100
AcDbSymbolTable
 70
     1
100
AcDbDimStyleTable
 71
     0
  0
DIMSTYLE
105
18
100
AcDbSymbolTableRecord
100
AcDbDimStyleTableRecord
  2
Standard
 70
     0
  3

  4

 40
1.0
 41
0.18
 42
0.0625
 43
0.38
 44
0.18
 45
0.0
 46
0.0
 47
0.0
 48
0.0
 71
     0
 72
     0
 73
     1
 74
     1
 75
     0
 76
     0
 77
     0
 78
     0
 79
     0
140
0.18
141
0.09
142
0.0
143
25.4
144
1.0
145
0.0
146
1.0
147
0.09
148
0.0
170
     0
171
     2
172
     0
173
     0
174
     0
175
     0
176
     0
177
     0
178
     0
179
     0
271
     4
272
     4
273
     2
274
     2
275
     0
276
     0
277
     2
278
    46
279
     0
280
     0
281
     0
282
     0
283
     1
284
     0
285
     0
286
     0
288
     0
289
     3
340
17
341
0
342
0
343
0
344
0
371
    -2
372
    -2
  0
ENDTAB
  0
TABLE
  2
BLOCK_RECORD
  5
1
100
AcDbSymbolTable
 70
     0
  0
BLOCK_RECORD
  5
A
100
AcDbSymbolTableRecord
100
AcDbBlockTableRecord
  2
*MODEL_SPACE
340
20
  0
BLOCK_RECORD
  5
B
100
AcDbSymbolTableRecord
100
AcDbBlockTableRecord
  2
*PAPER_SPACE
340
21
  0
ENDTAB
  0
ENDSEC
  0
SECTION
  2
BLOCKS
  0
BLOCK
  5
D
100
AcDbEntity
  8
0
390
0
100
AcDbBlockBegin
  2
*MODEL_SPACE
 70
     0
 10
0.0
 20
0.0
 30
0.0
  3
*MODEL_SPACE
  1

  0
ENDBLK
  5
E
100
AcDbEntity
  8
0
390
0
100
AcDbBlockEnd
  0
BLOCK
  5
F
100
AcDbEntity
 67
     1
  8
0
390
0
100
AcDbBlockBegin
  2
*PAPER_SPACE
 70
     0
 10
0.0
 20
0.0
 30
0.0
  3
*PAPER_SPACE
  1

  0
ENDBLK
  5
10
100
AcDbEntity
 67
     1
  8
0
390
0
100
AcDbBlockEnd
  0
ENDSEC
  0
SECTION
  2
ENTITIES
  0
VIEWPORT
  5
169
100
AcDbEntity
 67
     1
  8
0
370
     0
390
0
 62
     0
 48
0.0
100
AcDbViewport
 10
0.0
 20
0.0
 30
0.0
 40
1000.0
 41
1000.0
 68
     1
 69
     1
 12
0.0
 22
0.0
 13
0.0
 23
0.0
 14
1.0
 24
1.0
 15
1.0
 25
1.0
 16
0.0
 26
0.0
 36
1.0
 17
0.0
 27
0.0
 37
0.0
 42
50.0
 43
0.0
 44
0.0
 45
1000.0
 50
0.0
 51
0.0
 72
   100
 90
        0
340
0
  1

281
     0
 71
     0
 74
     1
110
0.0
120
0.0
130
0.0
111
1.0
121
0.0
131
0.0
112
0.0
122
1.0
132
0.0
345
0
346
0
 79
     0
146
0.0
  0
LINE
  5
24
100
AcDbEntity
  8
0
370
    13
390
0
 62
     7
 48
0.319198
100
AcDbLine
 10
175.343048
 20
69.158661
 30
0.0
 11
188.110977
 21
69.158661
 31
0.0
210
0.0
220
0.0
230
1.0
  0
LINE
  5
25
100
AcDbEntity
  8
0
370
    13
390
0
 62
     7
 48
0.319198
100
AcDbLine
 10
99.217178
 20
69.158661
 30
0.0
 11
111.985107
 21
69.158661
 31
0.0
210
0.0
220
0.0
230
1.0
  0
LINE
  5
26
100
AcDbEntity
  8
0
370
    13
390
0
 62
     7
 48
0.319198
100
AcDbLine
 10
188.110977
 20
164.158661
 30
0.0
 11
175.343048
 21
164.158661
 31
0.0
210
0.0
220
0.0
230
1.0
  0
LINE
  5
27
100
AcDbEntity
  8
0
370
    13
390
0
 62
     7
 48
0.319198
100
AcDbLine
 10
111.985107
 20
164.158661
 30
0.0
 11
99.217178
 21
164.158661
 31
0.0
210
0.0
220
0.0
230
1.0
  0
ARC
  5
28
100
AcDbEntity
  8
0
370
    13
390
0
 62
     7
100
AcDbCircle
 10
126.201111
 20
42.658661
 30
0.0
 40
1.0
210
0.0
220
0.0
230
1.0
100
AcDbArc
 50
180.000009
 51
269.999997
  0
LINE
  5
29
100
AcDbEntity
  8
0
370
    13
390
0
 62
     7
100
AcDbLine
 10
125.201111
 20
66.658661
 30
0.0
 11
125.201111
 21
42.658661
 31
0.0
210
0.0
220
0.0
230
1.0
  0
LINE
  5
2A
100
AcDbEntity
  8
0
370
    13
390
0
 62
     7
 48
0.0625
100
AcDbLine
 10
188.110977
 20
66.658661
 30
0.0
 11
188.110977
 21
69.158661
 31
0.0
210
0.0
220
0.0
230
1.0
  0
LINE
  5
2B
100
AcDbEntity
  8
0
370
    13
390
0
 62
     7
100
AcDbLine
 10
237.12706
 20
66.658661
 30
0.0
 11
188.110977
 21
66.658661
 31
0.0
210
0.0
220
0.0
230
1.0
  0
LINE
  5
2C
100
AcDbEntity
  8
0
370
    13
390
0
 62
     7
100
AcDbLine
 10
237.12706
 20
42.046844
 30
0.0
 11
237.12706
 21
66.658661
 31
0.0
210
0.0
220
0.0
230
1.0
  0
POLYLINE
  5
2D
100
AcDbEntity
  8
0
370
    13
390
0
 62
     7
100
AcDb2dPolyline
 66
     1
 10
0.0
 20
0.0
 30
0.0
 71
    38
  0
VERTEX
  5
2E
100
AcDbEntity
  8
0
370
     0
390
0
100
AcDbVertex
100
AcDb2dVertex
 10
272.164063
 20
116.658661
 30
0.0
  0
VERTEX
  5
2F
100
AcDbEntity
  8
0
370
     0
390
0
100
AcDbVertex
100
AcDb2dVertex
 10
272.131653
 20
113.505325
 30
0.0
  0
VERTEX
  5
30
100
AcDbEntity
  8
0
370
     0
390
0
100
AcDbVertex
100
AcDb2dVertex
 10
272.033997
 20
110.313675
 30
0.0
  0
VERTEX
  5
31
100
AcDbEntity
  8
0
370
     0
390
0
100
AcDbVertex
100
AcDb2dVertex
 10
271.870361
 20
107.085693
 30
0.0
  0
VERTEX
  5
32
100
AcDbEntity
  8
0
370
     0
390
0
100
AcDbVertex
100
AcDb2dVertex
 10
271.639343
 20
103.824646
 30
0.0
  0
VERTEX
  5
33
100
AcDbEntity
  8
0
370
     0
390
0
100
AcDbVertex
100
AcDb2dVertex
 10
271.339355
 20
100.53508
 30
0.0
  0
VERTEX
  5
34
100
AcDbEntity
  8
0
370
     0
390
0
100
AcDbVertex
100
AcDb2dVertex
 10
270.968201
 20
97.222748
 30
0.0
  0
VERTEX
  5
35
100
AcDbEntity
  8
0
370
     0
390
0
100
AcDbVertex
100
AcDb2dVertex
 10
270.523621
 20
93.894699
 30
0.0
  0
VERTEX
  5
36
100
AcDbEntity
  8
0
370
     0
390
0
100
AcDbVertex
100
AcDb2dVertex
 10
270.003174
 20
90.559181
 30
0.0
  0
VERTEX
  5
37
100
AcDbEntity
  8
0
370
     0
390
0
100
AcDbVertex
100
AcDb2dVertex
 10
269.404297
 20
87.225754
 30
0.0
  0
VERTEX
  5
38
100
AcDbEntity
  8
0
370
     0
390
0
100
AcDbVertex
100
AcDb2dVertex
 10
268.724548
 20
83.905243
 30
0.0
  0
VERTEX
  5
39
100
AcDbEntity
  8
0
370
     0
390
0
100
AcDbVertex
100
AcDb2dVertex
 10
267.961609
 20
80.609825
 30
0.0
  0
VERTEX
  5
3A
100
AcDbEntity
  8
0
370
     0
390
0
100
AcDbVertex
100
AcDb2dVertex
 10
267.113708
 20
77.353058
 30
0.0
  0
VERTEX
  5
3B
100
AcDbEntity
  8
0
370
     0
390
0
100
AcDbVertex
100
AcDb2dVertex
 10
266.17926
 20
74.149834
 30
0.0
  0
VERTEX
  5
3C
100
AcDbEntity
  8
0
370
     0
390
0
100
AcDbVertex
100
AcDb2dVertex
 10
265.157349
 20
71.016212
 30
0.0
  0
VERTEX
  5
3D
100
AcDbEntity
  8
0
370
     0
390
0
100
AcDbVertex
100
AcDb2dVertex
 10
264.047302
 20
67.969093
 30
0.0
  0
VERTEX
  5
3E
100
AcDbEntity
  8
0
370
     0
390
0
100
AcDbVertex
100
AcDb2dVertex
 10
262.848999
 20
65.02581
 30
0.0
  0
VERTEX
  5
3F
100
AcDbEntity
  8
0
370
     0
390
0
100
AcDbVertex
100
AcDb2dVertex
 10
261.562378
 20
62.20369
 30
0.0
  0
VERTEX
  5
40
100
AcDbEntity
  8
0
370
     0
390
0
100
AcDbVertex
100
AcDb2dVertex
 10
260.187683
 20
59.519722
 30
0.0
  0
VERTEX
  5
41
100
AcDbEntity
  8
0
370
     0
390
0
100
AcDbVertex
100
AcDb2dVertex
 10
259.445435
 20
58.196709
 30
0.0
  0
VERTEX
  5
42
100
AcDbEntity
  8
0
370
     0
390
0
100
AcDbVertex
100
AcDb2dVertex
 10
258.680054
 20
56.916748
 30
0.0
  0
VERTEX
  5
43
100
AcDbEntity
  8
0
370
     0
390
0
100
AcDbVertex
100
AcDb2dVertex
 10
257.93811
 20
55.752495
 30
0.0
  0
VERTEX
  5
44
100
AcDbEntity
  8
0
370
     0
390
0
100
AcDbVertex
100
AcDb2dVertex
 10
257.17572
 20
54.629753
 30
0.0
  0
VERTEX
  5
45
100
AcDbEntity
  8
0
370
     0
390
0
100
AcDbVertex
100
AcDb2dVertex
 10
256.094727
 20
53.156853
 30
0.0
  0
VERTEX
  5
46
100
AcDbEntity
  8
0
370
     0
390
0
100
AcDbVertex
100
AcDb2dVertex
 10
254.975571
 20
51.768463
 30
0.0
  0
VERTEX
  5
47
100
AcDbEntity
  8
0
370
     0
390
0
100
AcDbVertex
100
AcDb2dVertex
 10
253.818588
 20
50.467453
 30
0.0
  0
VERTEX
  5
48
100
AcDbEntity
  8
0
370
     0
390
0
100
AcDbVertex
100
AcDb2dVertex
 10
252.624191
 20
49.256096
 30
0.0
  0
VERTEX
  5
49
100
AcDbEntity
  8
0
370
     0
390
0
100
AcDbVertex
100
AcDb2dVertex
 10
251.392715
 20
48.136078
 30
0.0
  0
VERTEX
  5
4A
100
AcDbEntity
  8
0
370
     0
390
0
100
AcDbVertex
100
AcDb2dVertex
 10
250.124588
 20
47.108513
 30
0.0
  0
VERTEX
  5
4B
100
AcDbEntity
  8
0
370
     0
390
0
100
AcDbVertex
100
AcDb2dVertex
 10
248.820236
 20
46.17408
 30
0.0
  0
VERTEX
  5
4C
100
AcDbEntity
  8
0
370
     0
390
0
100
AcDbVertex
100
AcDb2dVertex
 10
247.480087
 20
45.333107
 30
0.0
  0
VERTEX
  5
4D
100
AcDbEntity
  8
0
370
     0
390
0
100
AcDbVertex
100
AcDb2dVertex
 10
246.104568
 20
44.585617
 30
0.0
  0
VERTEX
  5
4E
100
AcDbEntity
  8
0
370
     0
390
0
100
AcDbVertex
100
AcDb2dVertex
 10
244.694046
 20
43.931412
 30
0.0
  0
VERTEX
  5
4F
100
AcDbEntity
  8
0
370
     0
390
0
100
AcDbVertex
100
AcDb2dVertex
 10
243.248886
 20
43.370178
 30
0.0
  0
VERTEX
  5
50
100
AcDbEntity
  8
0
370
     0
390
0
100
AcDbVertex
100
AcDb2dVertex
 10
241.769394
 20
42.901497
 30
0.0
  0
VERTEX
  5
51
100
AcDbEntity
  8
0
370
     0
390
0
100
AcDbVertex
100
AcDb2dVertex
 10
240.255814
 20
42.52494
 30
0.0
  0
VERTEX
  5
52
100
AcDbEntity
  8
0
370
     0
390
0
100
AcDbVertex
100
AcDb2dVertex
 10
238.708328
 20
42.240143
 30
0.0
  0
VERTEX
  5
53
100
AcDbEntity
  8
0
370
     0
390
0
100
AcDbVertex
100
AcDb2dVertex
 10
237.12706
 20
42.046844
 30
0.0
  0
SEQEND
  5
54
100
AcDbEntity
  8
0
370
     0
390
0
  0
POLYLINE
  5
55
100
AcDbEntity
  8
0
370
    13
390
0
 62
     7
100
AcDb2dPolyline
 66
     1
 10
0.0
 20
0.0
 30
0.0
 71
    38
  0
VERTEX
  5
56
100
AcDbEntity
  8
0
370
     0
390
0
100
AcDbVertex
100
AcDb2dVertex
 10
272.164063
 20
116.658661
 30
0.0
  0
VERTEX
  5
57
100
AcDbEntity
  8
0
370
     0
390
0
100
AcDbVertex
100
AcDb2dVertex
 10
272.131653
 20
119.811996
 30
0.0
  0
VERTEX
  5
58
100
AcDbEntity
  8
0
370
     0
390
0
100
AcDbVertex
100
AcDb2dVertex
 10
272.033997
 20
123.003647
 30
0.0
  0
VERTEX
  5
59
100
AcDbEntity
  8
0
370
     0
390
0
100
AcDbVertex
100
AcDb2dVertex
 10
271.870361
 20
126.231628
 30
0.0
  0
VERTEX
  5
5A
100
AcDbEntity
  8
0
370
     0
390
0
100
AcDbVertex
100
AcDb2dVertex
 10
271.639343
 20
129.492676
 30
0.0
  0
VERTEX
  5
5B
100
AcDbEntity
  8
0
370
     0
390
0
100
AcDbVertex
100
AcDb2dVertex
 10
271.339355
 20
132.782242
 30
0.0
  0
VERTEX
  5
5C
100
AcDbEntity
  8
0
370
     0
390
0
100
AcDbVertex
100
AcDb2dVertex
 10
270.968201
 20
136.094574
 30
0.0
  0
VERTEX
  5
5D
100
AcDbEntity
  8
0
370
     0
390
0
100
AcDbVertex
100
AcDb2dVertex
 10
270.523621
 20
139.422623
 30
0.0
  0
VERTEX
  5
5E
100
AcDbEntity
  8
0
370
     0
390
0
100
AcDbVertex
100
AcDb2dVertex
 10
270.003174
 20
142.758148
 30
0.0
  0
VERTEX
  5
5F
100
AcDbEntity
  8
0
370
     0
390
0
100
AcDbVertex
100
AcDb2dVertex
 10
269.404297
 20
146.091568
 30
0.0
  0
VERTEX
  5
60
100
AcDbEntity
  8
0
370
     0
390
0
100
AcDbVertex
100
AcDb2dVertex
 10
268.724548
 20
149.412079
 30
0.0
  0
VERTEX
  5
61
100
AcDbEntity
  8
0
370
     0
390
0
100
AcDbVertex
100
AcDb2dVertex
 10
267.961609
 20
152.707504
 30
0.0
  0
VERTEX
  5
62
100
AcDbEntity
  8
0
370
     0
390
0
100
AcDbVertex
100
AcDb2dVertex
 10
267.113708
 20
155.964264
 30
0.0
  0
VERTEX
  5
63
100
AcDbEntity
  8
0
370
     0
390
0
100
AcDbVertex
100
AcDb2dVertex
 10
266.17926
 20
159.167496
 30
0.0
  0
VERTEX
  5
64
100
AcDbEntity
  8
0
370
     0
390
0
100
AcDbVertex
100
AcDb2dVertex
 10
265.157349
 20
162.301117
 30
0.0
  0
VERTEX
  5
65
100
AcDbEntity
  8
0
370
     0
390
0
100
AcDbVertex
100
AcDb2dVertex
 10
264.047302
 20
165.348221
 30
0.0
  0
VERTEX
  5
66
100
AcDbEntity
  8
0
370
     0
390
0
100
AcDbVertex
100
AcDb2dVertex
 10
262.848999
 20
168.291519
 30
0.0
  0
VERTEX
  5
67
100
AcDbEntity
  8
0
370
     0
390
0
100
AcDbVertex
100
AcDb2dVertex
 10
261.562378
 20
171.113632
 30
0.0
  0
VERTEX
  5
68
100
AcDbEntity
  8
0
370
     0
390
0
100
AcDbVertex
100
AcDb2dVertex
 10
260.187683
 20
173.797607
 30
0.0
  0
VERTEX
  5
69
100
AcDbEntity
  8
0
370
     0
390
0
100
AcDbVertex
100
AcDb2dVertex
 10
259.445435
 20
175.120605
 30
0.0
  0
VERTEX
  5
6A
100
AcDbEntity
  8
0
370
     0
390
0
100
AcDbVertex
100
AcDb2dVertex
 10
258.680054
 20
176.400574
 30
0.0
  0
VERTEX
  5
6B
100
AcDbEntity
  8
0
370
     0
390
0
100
AcDbVertex
100
AcDb2dVertex
 10
257.93811
 20
177.564819
 30
0.0
  0
VERTEX
  5
6C
100
AcDbEntity
  8
0
370
     0
390
0
100
AcDbVertex
100
AcDb2dVertex
 10
257.17572
 20
178.687561
 30
0.0
  0
VERTEX
  5
6D
100
AcDbEntity
  8
0
370
     0
390
0
100
AcDbVertex
100
AcDb2dVertex
 10
256.094727
 20
180.160477
 30
0.0
  0
VERTEX
  5
6E
100
AcDbEntity
  8
0
370
     0
390
0
100
AcDbVertex
100
AcDb2dVertex
 10
254.975571
 20
181.548859
 30
0.0
  0
VERTEX
  5
6F
100
AcDbEntity
  8
0
370
     0
390
0
100
AcDbVertex
100
AcDb2dVertex
 10
253.818588
 20
182.849869
 30
0.0
  0
VERTEX
  5
70
100
AcDbEntity
  8
0
370
     0
390
0
100
AcDbVertex
100
AcDb2dVertex
 10
252.624191
 20
184.061218
 30
0.0
  0
VERTEX
  5
71
100
AcDbEntity
  8
0
370
     0
390
0
100
AcDbVertex
100
AcDb2dVertex
 10
251.392715
 20
185.181244
 30
0.0
  0
VERTEX
  5
72
100
AcDbEntity
  8
0
370
     0
390
0
100
AcDbVertex
100
AcDb2dVertex
 10
250.124588
 20
186.208817
 30
0.0
  0
VERTEX
  5
73
100
AcDbEntity
  8
0
370
     0
390
0
100
AcDbVertex
100
AcDb2dVertex
 10
248.820236
 20
187.143234
 30
0.0
  0
VERTEX
  5
74
100
AcDbEntity
  8
0
370
     0
390
0
100
AcDbVertex
100
AcDb2dVertex
 10
247.480087
 20
187.984207
 30
0.0
  0
VERTEX
  5
75
100
AcDbEntity
  8
0
370
     0
390
0
100
AcDbVertex
100
AcDb2dVertex
 10
246.104568
 20
188.731705
 30
0.0
  0
VERTEX
  5
76
100
AcDbEntity
  8
0
370
     0
390
0
100
AcDbVertex
100
AcDb2dVertex
 10
244.694046
 20
189.38591
 30
0.0
  0
VERTEX
  5
77
100
AcDbEntity
  8
0
370
     0
390
0
100
AcDbVertex
100
AcDb2dVertex
 10
243.248886
 20
189.947144
 30
0.0
  0
VERTEX
  5
78
100
AcDbEntity
  8
0
370
     0
390
0
100
AcDbVertex
100
AcDb2dVertex
 10
241.769394
 20
190.415833
 30
0.0
  0
VERTEX
  5
79
100
AcDbEntity
  8
0
370
     0
390
0
100
AcDbVertex
100
AcDb2dVertex
 10
240.255814
 20
190.792389
 30
0.0
  0
VERTEX
  5
7A
100
AcDbEntity
  8
0
370
     0
390
0
100
AcDbVertex
100
AcDb2dVertex
 10
238.708328
 20
191.077179
 30
0.0
  0
VERTEX
  5
7B
100
AcDbEntity
  8
0
370
     0
390
0
100
AcDbVertex
100
AcDb2dVertex
 10
237.12706
 20
191.270477
 30
0.0
  0
SEQEND
  5
7C
100
AcDbEntity
  8
0
370
     0
390
0
  0
LINE
  5
7D
100
AcDbEntity
  8
0
370
    13
390
0
 62
     7
100
AcDbLine
 10
237.12706
 20
191.270477
 30
0.0
 11
237.12706
 21
166.658661
 31
0.0
210
0.0
220
0.0
230
1.0
  0
LINE
  5
7E
100
AcDbEntity
  8
0
370
    13
390
0
 62
     7
100
AcDbLine
 10
237.12706
 20
166.658661
 30
0.0
 11
188.110977
 21
166.658661
 31
0.0
210
0.0
220
0.0
230
1.0
  0
LINE
  5
7F
100
AcDbEntity
  8
0
370
    13
390
0
 62
     7
 48
0.0625
100
AcDbLine
 10
188.110977
 20
166.658661
 30
0.0
 11
188.110977
 21
164.158661
 31
0.0
210
0.0
220
0.0
230
1.0
  0
LINE
  5
80
100
AcDbEntity
  8
0
370
    13
390
0
 62
     7
 48
0.0625
100
AcDbLine
 10
175.343048
 20
164.158661
 30
0.0
 11
175.343048
 21
166.658661
 31
0.0
210
0.0
220
0.0
230
1.0
  0
LINE
  5
81
100
AcDbEntity
  8
0
370
    13
390
0
 62
     7
 48
0.3304
100
AcDbLine
 10
175.343048
 20
166.658661
 30
0.0
 11
162.127045
 21
166.658661
 31
0.0
210
0.0
220
0.0
230
1.0
  0
LINE
  5
82
100
AcDbEntity
  8
0
370
    13
390
0
 62
     7
100
AcDbLine
 10
162.127045
 20
166.658661
 30
0.0
 11
162.127045
 21
190.658661
 31
0.0
210
0.0
220
0.0
230
1.0
  0
ARC
  5
83
100
AcDbEntity
  8
0
370
    13
390
0
 62
     7
100
AcDbCircle
 10
161.127045
 20
190.658661
 30
0.0
 40
1.0
210
0.0
220
0.0
230
1.0
100
AcDbArc
 50
0.0
 51
90.000003
  0
LINE
  5
84
100
AcDbEntity
  8
0
370
    13
390
0
 62
     7
100
AcDbLine
 10
161.127045
 20
191.658661
 30
0.0
 11
126.201111
 21
191.658661
 31
0.0
210
0.0
220
0.0
230
1.0
  0
ARC
  5
85
100
AcDbEntity
  8
0
370
    13
390
0
 62
     7
100
AcDbCircle
 10
126.201111
 20
190.658661
 30
0.0
 40
1.0
210
0.0
220
0.0
230
1.0
100
AcDbArc
 50
90.000003
 51
180.000009
  0
LINE
  5
86
100
AcDbEntity
  8
0
370
    13
390
0
 62
     7
100
AcDbLine
 10
125.201111
 20
166.658661
 30
0.0
 11
125.201111
 21
190.658661
 31
0.0
210
0.0
220
0.0
230
1.0
  0
LINE
  5
87
100
AcDbEntity
  8
0
370
    13
390
0
 62
     7
 48
0.3304
100
AcDbLine
 10
111.985107
 20
166.658661
 30
0.0
 11
125.201111
 21
166.658661
 31
0.0
210
0.0
220
0.0
230
1.0
  0
LINE
  5
88
100
AcDbEntity
  8
0
370
    13
390
0
 62
     7
 48
0.0625
100
AcDbLine
 10
111.985107
 20
166.658661
 30
0.0
 11
111.985107
 21
164.158661
 31
0.0
210
0.0
220
0.0
230
1.0
  0
LINE
  5
89
100
AcDbEntity
  8
0
370
    13
390
0
 62
     7
 48
0.0625
100
AcDbLine
 10
99.217178
 20
166.658661
 30
0.0
 11
99.217178
 21
164.158661
 31
0.0
210
0.0
220
0.0
230
1.0
  0
LINE
  5
8A
100
AcDbEntity
  8
0
370
    13
390
0
 62
     7
100
AcDbLine
 10
50.201103
 20
166.658661
 30
0.0
 11
99.217178
 21
166.658661
 31
0.0
210
0.0
220
0.0
230
1.0
  0
LINE
  5
8B
100
AcDbEntity
  8
0
370
    13
390
0
 62
     7
100
AcDbLine
 10
50.201103
 20
191.270477
 30
0.0
 11
50.201103
 21
166.658661
 31
0.0
210
0.0
220
0.0
230
1.0
  0
POLYLINE
  5
8C
100
AcDbEntity
  8
0
370
    13
390
0
 62
     7
100
AcDb2dPolyline
 66
     1
 10
0.0
 20
0.0
 30
0.0
 71
    38
  0
VERTEX
  5
8D
100
AcDbEntity
  8
0
370
     0
390
0
100
AcDbVertex
100
AcDb2dVertex
 10
15.164078
 20
116.658661
 30
0.0
  0
VERTEX
  5
8E
100
AcDbEntity
  8
0
370
     0
390
0
100
AcDbVertex
100
AcDb2dVertex
 10
15.196526
 20
119.811996
 30
0.0
  0
VERTEX
  5
8F
100
AcDbEntity
  8
0
370
     0
390
0
100
AcDbVertex
100
AcDb2dVertex
 10
15.294167
 20
123.003647
 30
0.0
  0
VERTEX
  5
90
100
AcDbEntity
  8
0
370
     0
390
0
100
AcDbVertex
100
AcDb2dVertex
 10
15.457817
 20
126.231628
 30
0.0
  0
VERTEX
  5
91
100
AcDbEntity
  8
0
370
     0
390
0
100
AcDbVertex
100
AcDb2dVertex
 10
15.688797
 20
129.492676
 30
0.0
  0
VERTEX
  5
92
100
AcDbEntity
  8
0
370
     0
390
0
100
AcDbVertex
100
AcDb2dVertex
 10
15.988823
 20
132.782242
 30
0.0
  0
VERTEX
  5
93
100
AcDbEntity
  8
0
370
     0
390
0
100
AcDbVertex
100
AcDb2dVertex
 10
16.35997
 20
136.094574
 30
0.0
  0
VERTEX
  5
94
100
AcDbEntity
  8
0
370
     0
390
0
100
AcDbVertex
100
AcDb2dVertex
 10
16.804535
 20
139.422623
 30
0.0
  0
VERTEX
  5
95
100
AcDbEntity
  8
0
370
     0
390
0
100
AcDbVertex
100
AcDb2dVertex
 10
17.324997
 20
142.758148
 30
0.0
  0
VERTEX
  5
96
100
AcDbEntity
  8
0
370
     0
390
0
100
AcDbVertex
100
AcDb2dVertex
 10
17.923874
 20
146.091568
 30
0.0
  0
VERTEX
  5
97
100
AcDbEntity
  8
0
370
     0
390
0
100
AcDbVertex
100
AcDb2dVertex
 10
18.60363
 20
149.412079
 30
0.0
  0
VERTEX
  5
98
100
AcDbEntity
  8
0
370
     0
390
0
100
AcDbVertex
100
AcDb2dVertex
 10
19.366516
 20
152.707504
 30
0.0
  0
VERTEX
  5
99
100
AcDbEntity
  8
0
370
     0
390
0
100
AcDbVertex
100
AcDb2dVertex
 10
20.214447
 20
155.964264
 30
0.0
  0
VERTEX
  5
9A
100
AcDbEntity
  8
0
370
     0
390
0
100
AcDbVertex
100
AcDb2dVertex
 10
21.148895
 20
159.167496
 30
0.0
  0
VERTEX
  5
9B
100
AcDbEntity
  8
0
370
     0
390
0
100
AcDbVertex
100
AcDb2dVertex
 10
22.17083
 20
162.301117
 30
0.0
  0
VERTEX
  5
9C
100
AcDbEntity
  8
0
370
     0
390
0
100
AcDbVertex
100
AcDb2dVertex
 10
23.280823
 20
165.348221
 30
0.0
  0
VERTEX
  5
9D
100
AcDbEntity
  8
0
370
     0
390
0
100
AcDbVertex
100
AcDb2dVertex
 10
24.479141
 20
168.291519
 30
0.0
  0
VERTEX
  5
9E
100
AcDbEntity
  8
0
370
     0
390
0
100
AcDbVertex
100
AcDb2dVertex
 10
25.76577
 20
171.113632
 30
0.0
  0
VERTEX
  5
9F
100
AcDbEntity
  8
0
370
     0
390
0
100
AcDbVertex
100
AcDb2dVertex
 10
27.140495
 20
173.797607
 30
0.0
  0
VERTEX
  5
A0
100
AcDbEntity
  8
0
370
     0
390
0
100
AcDbVertex
100
AcDb2dVertex
 10
27.882721
 20
175.120605
 30
0.0
  0
VERTEX
  5
A1
100
AcDbEntity
  8
0
370
     0
390
0
100
AcDbVertex
100
AcDb2dVertex
 10
28.648125
 20
176.400574
 30
0.0
  0
VERTEX
  5
A2
100
AcDbEntity
  8
0
370
     0
390
0
100
AcDbVertex
100
AcDb2dVertex
 10
29.390068
 20
177.564819
 30
0.0
  0
VERTEX
  5
A3
100
AcDbEntity
  8
0
370
     0
390
0
100
AcDbVertex
100
AcDb2dVertex
 10
30.152412
 20
178.687561
 30
0.0
  0
VERTEX
  5
A4
100
AcDbEntity
  8
0
370
     0
390
0
100
AcDbVertex
100
AcDb2dVertex
 10
31.233452
 20
180.160477
 30
0.0
  0
VERTEX
  5
A5
100
AcDbEntity
  8
0
370
     0
390
0
100
AcDbVertex
100
AcDb2dVertex
 10
32.3526
 20
181.548859
 30
0.0
  0
VERTEX
  5
A6
100
AcDbEntity
  8
0
370
     0
390
0
100
AcDbVertex
100
AcDb2dVertex
 10
33.509552
 20
182.849869
 30
0.0
  0
VERTEX
  5
A7
100
AcDbEntity
  8
0
370
     0
390
0
100
AcDbVertex
100
AcDb2dVertex
 10
34.703964
 20
184.061218
 30
0.0
  0
VERTEX
  5
A8
100
AcDbEntity
  8
0
370
     0
390
0
100
AcDbVertex
100
AcDb2dVertex
 10
35.935448
 20
185.181244
 30
0.0
  0
VERTEX
  5
A9
100
AcDbEntity
  8
0
370
     0
390
0
100
AcDbVertex
100
AcDb2dVertex
 10
37.203575
 20
186.208817
 30
0.0
  0
VERTEX
  5
AA
100
AcDbEntity
  8
0
370
     0
390
0
100
AcDbVertex
100
AcDb2dVertex
 10
38.507927
 20
187.143234
 30
0.0
  0
VERTEX
  5
AB
100
AcDbEntity
  8
0
370
     0
390
0
100
AcDbVertex
100
AcDb2dVertex
 10
39.848068
 20
187.984207
 30
0.0
  0
VERTEX
  5
AC
100
AcDbEntity
  8
0
370
     0
390
0
100
AcDbVertex
100
AcDb2dVertex
 10
41.223595
 20
188.731705
 30
0.0
  0
VERTEX
  5
AD
100
AcDbEntity
  8
0
370
     0
390
0
100
AcDbVertex
100
AcDb2dVertex
 10
42.634102
 20
189.38591
 30
0.0
  0
VERTEX
  5
AE
100
AcDbEntity
  8
0
370
     0
390
0
100
AcDbVertex
100
AcDb2dVertex
 10
44.079262
 20
189.947144
 30
0.0
  0
VERTEX
  5
AF
100
AcDbEntity
  8
0
370
     0
390
0
100
AcDbVertex
100
AcDb2dVertex
 10
45.558754
 20
190.415833
 30
0.0
  0
VERTEX
  5
B0
100
AcDbEntity
  8
0
370
     0
390
0
100
AcDbVertex
100
AcDb2dVertex
 10
47.072342
 20
190.792389
 30
0.0
  0
VERTEX
  5
B1
100
AcDbEntity
  8
0
370
     0
390
0
100
AcDbVertex
100
AcDb2dVertex
 10
48.619827
 20
191.077179
 30
0.0
  0
VERTEX
  5
B2
100
AcDbEntity
  8
0
370
     0
390
0
100
AcDbVertex
100
AcDb2dVertex
 10
50.201103
 20
191.270477
 30
0.0
  0
SEQEND
  5
B3
100
AcDbEntity
  8
0
370
     0
390
0
  0
POLYLINE
  5
B4
100
AcDbEntity
  8
0
370
    13
390
0
 62
     7
100
AcDb2dPolyline
 66
     1
 10
0.0
 20
0.0
 30
0.0
 71
    38
  0
VERTEX
  5
B5
100
AcDbEntity
  8
0
370
     0
390
0
100
AcDbVertex
100
AcDb2dVertex
 10
15.164078
 20
116.658661
 30
0.0
  0
VERTEX
  5
B6
100
AcDbEntity
  8
0
370
     0
390
0
100
AcDbVertex
100
AcDb2dVertex
 10
15.196526
 20
113.505325
 30
0.0
  0
VERTEX
  5
B7
100
AcDbEntity
  8
0
370
     0
390
0
100
AcDbVertex
100
AcDb2dVertex
 10
15.294167
 20
110.313675
 30
0.0
  0
VERTEX
  5
B8
100
AcDbEntity
  8
0
370
     0
390
0
100
AcDbVertex
100
AcDb2dVertex
 10
15.457817
 20
107.085693
 30
0.0
  0
VERTEX
  5
B9
100
AcDbEntity
  8
0
370
     0
390
0
100
AcDbVertex
100
AcDb2dVertex
 10
15.688797
 20
103.824646
 30
0.0
  0
VERTEX
  5
BA
100
AcDbEntity
  8
0
370
     0
390
0
100
AcDbVertex
100
AcDb2dVertex
 10
15.988823
 20
100.53508
 30
0.0
  0
VERTEX
  5
BB
100
AcDbEntity
  8
0
370
     0
390
0
100
AcDbVertex
100
AcDb2dVertex
 10
16.35997
 20
97.222748
 30
0.0
  0
VERTEX
  5
BC
100
AcDbEntity
  8
0
370
     0
390
0
100
AcDbVertex
100
AcDb2dVertex
 10
16.804535
 20
93.894699
 30
0.0
  0
VERTEX
  5
BD
100
AcDbEntity
  8
0
370
     0
390
0
100
AcDbVertex
100
AcDb2dVertex
 10
17.324997
 20
90.559181
 30
0.0
  0
VERTEX
  5
BE
100
AcDbEntity
  8
0
370
     0
390
0
100
AcDbVertex
100
AcDb2dVertex
 10
17.923874
 20
87.225754
 30
0.0
  0
VERTEX
  5
BF
100
AcDbEntity
  8
0
370
     0
390
0
100
AcDbVertex
100
AcDb2dVertex
 10
18.60363
 20
83.905243
 30
0.0
  0
VERTEX
  5
C0
100
AcDbEntity
  8
0
370
     0
390
0
100
AcDbVertex
100
AcDb2dVertex
 10
19.366516
 20
80.609825
 30
0.0
  0
VERTEX
  5
C1
100
AcDbEntity
  8
0
370
     0
390
0
100
AcDbVertex
100
AcDb2dVertex
 10
20.214447
 20
77.353058
 30
0.0
  0
VERTEX
  5
C2
100
AcDbEntity
  8
0
370
     0
390
0
100
AcDbVertex
100
AcDb2dVertex
 10
21.148895
 20
74.149834
 30
0.0
  0
VERTEX
  5
C3
100
AcDbEntity
  8
0
370
     0
390
0
100
AcDbVertex
100
AcDb2dVertex
 10
22.17083
 20
71.016212
 30
0.0
  0
VERTEX
  5
C4
100
AcDbEntity
  8
0
370
     0
390
0
100
AcDbVertex
100
AcDb2dVertex
 10
23.280823
 20
67.969093
 30
0.0
  0
VERTEX
  5
C5
100
AcDbEntity
  8
0
370
     0
390
0
100
AcDbVertex
100
AcDb2dVertex
 10
24.479141
 20
65.02581
 30
0.0
  0
VERTEX
  5
C6
100
AcDbEntity
  8
0
370
     0
390
0
100
AcDbVertex
100
AcDb2dVertex
 10
25.76577
 20
62.20369
 30
0.0
  0
VERTEX
  5
C7
100
AcDbEntity
  8
0
370
     0
390
0
100
AcDbVertex
100
AcDb2dVertex
 10
27.140495
 20
59.519722
 30
0.0
  0
VERTEX
  5
C8
100
AcDbEntity
  8
0
370
     0
390
0
100
AcDbVertex
100
AcDb2dVertex
 10
27.882721
 20
58.196709
 30
0.0
  0
VERTEX
  5
C9
100
AcDbEntity
  8
0
370
     0
390
0
100
AcDbVertex
100
AcDb2dVertex
 10
28.648125
 20
56.916748
 30
0.0
  0
VERTEX
  5
CA
100
AcDbEntity
  8
0
370
     0
390
0
100
AcDbVertex
100
AcDb2dVertex
 10
29.390068
 20
55.752495
 30
0.0
  0
VERTEX
  5
CB
100
AcDbEntity
  8
0
370
     0
390
0
100
AcDbVertex
100
AcDb2dVertex
 10
30.152412
 20
54.629753
 30
0.0
  0
VERTEX
  5
CC
100
AcDbEntity
  8
0
370
     0
390
0
100
AcDbVertex
100
AcDb2dVertex
 10
31.233452
 20
53.156853
 30
0.0
  0
VERTEX
  5
CD
100
AcDbEntity
  8
0
370
     0
390
0
100
AcDbVertex
100
AcDb2dVertex
 10
32.3526
 20
51.768463
 30
0.0
  0
VERTEX
  5
CE
100
AcDbEntity
  8
0
370
     0
390
0
100
AcDbVertex
100
AcDb2dVertex
 10
33.509552
 20
50.467453
 30
0.0
  0
VERTEX
  5
CF
100
AcDbEntity
  8
0
370
     0
390
0
100
AcDbVertex
100
AcDb2dVertex
 10
34.703964
 20
49.256096
 30
0.0
  0
VERTEX
  5
D0
100
AcDbEntity
  8
0
370
     0
390
0
100
AcDbVertex
100
AcDb2dVertex
 10
35.935448
 20
48.136078
 30
0.0
  0
VERTEX
  5
D1
100
AcDbEntity
  8
0
370
     0
390
0
100
AcDbVertex
100
AcDb2dVertex
 10
37.203575
 20
47.108513
 30
0.0
  0
VERTEX
  5
D2
100
AcDbEntity
  8
0
370
     0
390
0
100
AcDbVertex
100
AcDb2dVertex
 10
38.507927
 20
46.17408
 30
0.0
  0
VERTEX
  5
D3
100
AcDbEntity
  8
0
370
     0
390
0
100
AcDbVertex
100
AcDb2dVertex
 10
39.848068
 20
45.333107
 30
0.0
  0
VERTEX
  5
D4
100
AcDbEntity
  8
0
370
     0
390
0
100
AcDbVertex
100
AcDb2dVertex
 10
41.223595
 20
44.585617
 30
0.0
  0
VERTEX
  5
D5
100
AcDbEntity
  8
0
370
     0
390
0
100
AcDbVertex
100
AcDb2dVertex
 10
42.634102
 20
43.931412
 30
0.0
  0
VERTEX
  5
D6
100
AcDbEntity
  8
0
370
     0
390
0
100
AcDbVertex
100
AcDb2dVertex
 10
44.079262
 20
43.370178
 30
0.0
  0
VERTEX
  5
D7
100
AcDbEntity
  8
0
370
     0
390
0
100
AcDbVertex
100
AcDb2dVertex
 10
45.558754
 20
42.901497
 30
0.0
  0
VERTEX
  5
D8
100
AcDbEntity
  8
0
370
     0
390
0
100
AcDbVertex
100
AcDb2dVertex
 10
47.072342
 20
42.52494
 30
0.0
  0
VERTEX
  5
D9
100
AcDbEntity
  8
0
370
     0
390
0
100
AcDbVertex
100
AcDb2dVertex
 10
48.619827
 20
42.240143
 30
0.0
  0
VERTEX
  5
DA
100
AcDbEntity
  8
0
370
     0
390
0
100
AcDbVertex
100
AcDb2dVertex
 10
50.201103
 20
42.046844
 30
0.0
  0
SEQEND
  5
DB
100
AcDbEntity
  8
0
370
     0
390
0
  0
LINE
  5
DC
100
AcDbEntity
  8
0
370
    13
390
0
 62
     7
100
AcDbLine
 10
50.201103
 20
42.046844
 30
0.0
 11
50.201103
 21
66.658661
 31
0.0
210
0.0
220
0.0
230
1.0
  0
LINE
  5
DD
100
AcDbEntity
  8
0
370
    13
390
0
 62
     7
100
AcDbLine
 10
50.201103
 20
66.658661
 30
0.0
 11
99.217178
 21
66.658661
 31
0.0
210
0.0
220
0.0
230
1.0
  0
LINE
  5
DE
100
AcDbEntity
  8
0
370
    13
390
0
 62
     7
 48
0.0625
100
AcDbLine
 10
99.217178
 20
66.658661
 30
0.0
 11
99.217178
 21
69.158661
 31
0.0
210
0.0
220
0.0
230
1.0
  0
LINE
  5
DF
100
AcDbEntity
  8
0
370
    13
390
0
 62
     7
 48
0.0625
100
AcDbLine
 10
111.985107
 20
69.158661
 30
0.0
 11
111.985107
 21
66.658661
 31
0.0
210
0.0
220
0.0
230
1.0
  0
LINE
  5
E0
100
AcDbEntity
  8
0
370
    13
390
0
 62
     7
 48
0.3304
100
AcDbLine
 10
111.985107
 20
66.658661
 30
0.0
 11
125.201111
 21
66.658661
 31
0.0
210
0.0
220
0.0
230
1.0
  0
LINE
  5
E1
100
AcDbEntity
  8
0
370
    13
390
0
 62
     7
100
AcDbLine
 10
161.127045
 20
41.658661
 30
0.0
 11
126.201111
 21
41.658661
 31
0.0
210
0.0
220
0.0
230
1.0
  0
ARC
  5
E2
100
AcDbEntity
  8
0
370
    13
390
0
 62
     7
100
AcDbCircle
 10
161.127045
 20
42.658661
 30
0.0
 40
1.0
210
0.0
220
0.0
230
1.0
100
AcDbArc
 50
269.999997
 51
360.0
  0
LINE
  5
E3
100
AcDbEntity
  8
0
370
    13
390
0
 62
     7
100
AcDbLine
 10
162.127045
 20
66.658661
 30
0.0
 11
162.127045
 21
42.658661
 31
0.0
210
0.0
220
0.0
230
1.0
  0
LINE
  5
E4
100
AcDbEntity
  8
0
370
    13
390
0
 62
     7
 48
0.3304
100
AcDbLine
 10
175.343048
 20
66.658661
 30
0.0
 11
162.127045
 21
66.658661
 31
0.0
210
0.0
220
0.0
230
1.0
  0
LINE
  5
E5
100
AcDbEntity
  8
0
370
    13
390
0
 62
     7
 48
0.0625
100
AcDbLine
 10
175.343048
 20
66.658661
 30
0.0
 11
175.343048
 21
69.158661
 31
0.0
210
0.0
220
0.0
230
1.0
  0
CIRCLE
  5
E6
100
AcDbEntity
  8
0
370
    13
390
0
 62
     7
100
AcDbCircle
 10
85.479584
 20
116.658661
 30
0.0
 40
1.9
210
0.0
220
0.0
230
1.0
  0
CIRCLE
  5
E7
100
AcDbEntity
  8
0
370
    13
390
0
 62
     7
100
AcDbCircle
 10
130.875732
 20
161.338852
 30
0.0
 40
1.75
210
0.0
220
0.0
230
1.0
  0
CIRCLE
  5
E8
100
AcDbEntity
  8
0
370
    13
390
0
 62
     7
100
AcDbCircle
 10
58.519463
 20
71.631714
 30
0.0
 40
1.9
210
0.0
220
0.0
230
1.0
  0
CIRCLE
  5
E9
100
AcDbEntity
  8
0
370
    13
390
0
 62
     7
100
AcDbCircle
 10
139.794769
 20
116.658661
 30
0.0
 40
1.9
210
0.0
220
0.0
230
1.0
  0
CIRCLE
  5
EA
100
AcDbEntity
  8
0
370
    13
390
0
 62
     7
100
AcDbCircle
 10
130.875732
 20
71.978462
 30
0.0
 40
1.75
210
0.0
220
0.0
230
1.0
  0
CIRCLE
  5
EB
100
AcDbEntity
  8
0
370
    13
390
0
 62
     7
100
AcDbCircle
 10
58.519463
 20
161.685608
 30
0.0
 40
1.9
210
0.0
220
0.0
230
1.0
  0
CIRCLE
  5
EC
100
AcDbEntity
  8
0
370
    13
390
0
 62
     7
100
AcDbCircle
 10
143.664078
 20
60.065239
 30
0.0
 40
1.8
210
0.0
220
0.0
230
1.0
  0
LINE
  5
ED
100
AcDbEntity
  8
0
370
    13
390
0
 62
     7
100
AcDbLine
 10
25.473846
 20
147.357651
 30
0.0
 11
25.473846
 21
85.959679
 31
0.0
210
0.0
220
0.0
230
1.0
  0
ARC
  5
EE
100
AcDbEntity
  8
0
370
    13
390
0
 62
     7
100
AcDbCircle
 10
27.073853
 20
147.357651
 30
0.0
 40
1.6
210
0.0
220
0.0
230
1.0
100
AcDbArc
 50
0.0
 51
180.000009
  0
LINE
  5
EF
100
AcDbEntity
  8
0
370
    13
390
0
 62
     7
100
AcDbLine
 10
28.673851
 20
147.357651
 30
0.0
 11
28.673851
 21
85.959679
 31
0.0
210
0.0
220
0.0
230
1.0
  0
ARC
  5
F0
100
AcDbEntity
  8
0
370
    13
390
0
 62
     7
100
AcDbCircle
 10
27.073853
 20
85.959679
 30
0.0
 40
1.6
210
0.0
220
0.0
230
1.0
100
AcDbArc
 50
180.000009
 51
360.0
  0
CIRCLE
  5
F1
100
AcDbEntity
  8
0
370
    13
390
0
 62
     7
100
AcDbCircle
 10
44.976883
 20
116.658661
 30
0.0
 40
9.5
210
0.0
220
0.0
230
1.0
  0
LINE
  5
F2
100
AcDbEntity
  8
0
370
    13
390
0
 62
     7
 48
0.115
100
AcDbLine
 10
45.703629
 20
97.608078
 30
0.0
 11
45.703629
 21
102.208084
 31
0.0
210
0.0
220
0.0
230
1.0
  0
LINE
  5
F3
100
AcDbEntity
  8
0
370
    13
390
0
 62
     7
 48
0.2
100
AcDbLine
 10
45.703629
 20
102.208084
 30
0.0
 11
53.703629
 21
102.208084
 31
0.0
210
0.0
220
0.0
230
1.0
  0
LINE
  5
F4
100
AcDbEntity
  8
0
370
    13
390
0
 62
     7
 48
0.115
100
AcDbLine
 10
53.703629
 20
102.208084
 30
0.0
 11
53.703629
 21
97.608078
 31
0.0
210
0.0
220
0.0
230
1.0
  0
LINE
  5
F5
100
AcDbEntity
  8
0
370
    13
390
0
 62
     7
 48
0.2
100
AcDbLine
 10
53.703629
 20
97.608078
 30
0.0
 11
45.703629
 21
97.608078
 31
0.0
210
0.0
220
0.0
230
1.0
  0
LINE
  5
F6
100
AcDbEntity
  8
0
370
    13
390
0
 62
     7
 48
0.115
100
AcDbLine
 10
45.703629
 20
89.608078
 30
0.0
 11
45.703629
 21
94.208076
 31
0.0
210
0.0
220
0.0
230
1.0
  0
LINE
  5
F7
100
AcDbEntity
  8
0
370
    13
390
0
 62
     7
 48
0.2
100
AcDbLine
 10
45.703629
 20
94.208076
 30
0.0
 11
53.703629
 21
94.208076
 31
0.0
210
0.0
220
0.0
230
1.0
  0
LINE
  5
F8
100
AcDbEntity
  8
0
370
    13
390
0
 62
     7
 48
0.115
100
AcDbLine
 10
53.703629
 20
94.208076
 30
0.0
 11
53.703629
 21
89.608078
 31
0.0
210
0.0
220
0.0
230
1.0
  0
LINE
  5
F9
100
AcDbEntity
  8
0
370
    13
390
0
 62
     7
 48
0.2
100
AcDbLine
 10
53.703629
 20
89.608078
 30
0.0
 11
45.703629
 21
89.608078
 31
0.0
210
0.0
220
0.0
230
1.0
  0
LINE
  5
FA
100
AcDbEntity
  8
0
370
    13
390
0
 62
     7
 48
0.115
100
AcDbLine
 10
53.703629
 20
86.208076
 30
0.0
 11
53.703629
 21
81.608078
 31
0.0
210
0.0
220
0.0
230
1.0
  0
LINE
  5
FB
100
AcDbEntity
  8
0
370
    13
390
0
 62
     7
 48
0.2
100
AcDbLine
 10
53.703629
 20
81.608078
 30
0.0
 11
45.703629
 21
81.608078
 31
0.0
210
0.0
220
0.0
230
1.0
  0
LINE
  5
FC
100
AcDbEntity
  8
0
370
    13
390
0
 62
     7
 48
0.115
100
AcDbLine
 10
45.703629
 20
81.608078
 30
0.0
 11
45.703629
 21
86.208076
 31
0.0
210
0.0
220
0.0
230
1.0
  0
LINE
  5
FD
100
AcDbEntity
  8
0
370
    13
390
0
 62
     7
 48
0.2
100
AcDbLine
 10
45.703629
 20
86.208076
 30
0.0
 11
53.703629
 21
86.208076
 31
0.0
210
0.0
220
0.0
230
1.0
  0
LINE
  5
FE
100
AcDbEntity
  8
0
370
    13
390
0
 62
     7
 48
0.099682
100
AcDbLine
 10
88.180664
 20
91.21701
 30
0.0
 11
88.180664
 21
87.229736
 31
0.0
210
0.0
220
0.0
230
1.0
  0
LINE
  5
FF
100
AcDbEntity
  8
0
370
    13
390
0
 62
     7
 48
0.1625
100
AcDbLine
 10
88.180664
 20
87.229736
 30
0.0
 11
81.680664
 21
87.229736
 31
0.0
210
0.0
220
0.0
230
1.0
  0
LINE
  5
100
100
AcDbEntity
  8
0
370
    13
390
0
 62
     7
 48
0.099682
100
AcDbLine
 10
81.680664
 20
87.229736
 30
0.0
 11
81.680664
 21
91.21701
 31
0.0
210
0.0
220
0.0
230
1.0
  0
LINE
  5
101
100
AcDbEntity
  8
0
370
    13
390
0
 62
     7
 48
0.175
100
AcDbLine
 10
81.680664
 20
91.21701
 30
0.0
 11
74.680664
 21
91.21701
 31
0.0
210
0.0
220
0.0
230
1.0
  0
LINE
  5
102
100
AcDbEntity
  8
0
370
    13
390
0
 62
     7
 48
0.1625
100
AcDbLine
 10
74.680664
 20
91.21701
 30
0.0
 11
74.680664
 21
97.71701
 31
0.0
210
0.0
220
0.0
230
1.0
  0
LINE
  5
103
100
AcDbEntity
  8
0
370
    13
390
0
 62
     7
 48
0.175
100
AcDbLine
 10
74.680664
 20
97.71701
 30
0.0
 11
81.680664
 21
97.71701
 31
0.0
210
0.0
220
0.0
230
1.0
  0
LINE
  5
104
100
AcDbEntity
  8
0
370
    13
390
0
 62
     7
 48
0.099173
100
AcDbLine
 10
81.680664
 20
97.71701
 30
0.0
 11
81.680664
 21
101.683945
 31
0.0
210
0.0
220
0.0
230
1.0
  0
LINE
  5
105
100
AcDbEntity
  8
0
370
    13
390
0
 62
     7
 48
0.1625
100
AcDbLine
 10
81.680664
 20
101.683945
 30
0.0
 11
88.180664
 21
101.683945
 31
0.0
210
0.0
220
0.0
230
1.0
  0
LINE
  5
106
100
AcDbEntity
  8
0
370
    13
390
0
 62
     7
 48
0.099173
100
AcDbLine
 10
88.180664
 20
101.683945
 30
0.0
 11
88.180664
 21
97.71701
 31
0.0
210
0.0
220
0.0
230
1.0
  0
LINE
  5
107
100
AcDbEntity
  8
0
370
    13
390
0
 62
     7
 48
0.175
100
AcDbLine
 10
88.180664
 20
97.71701
 30
0.0
 11
95.180664
 21
97.71701
 31
0.0
210
0.0
220
0.0
230
1.0
  0
LINE
  5
108
100
AcDbEntity
  8
0
370
    13
390
0
 62
     7
 48
0.1625
100
AcDbLine
 10
95.180664
 20
97.71701
 30
0.0
 11
95.180664
 21
91.21701
 31
0.0
210
0.0
220
0.0
230
1.0
  0
LINE
  5
109
100
AcDbEntity
  8
0
370
    13
390
0
 62
     7
 48
0.175
100
AcDbLine
 10
95.180664
 20
91.21701
 30
0.0
 11
88.180664
 21
91.21701
 31
0.0
210
0.0
220
0.0
230
1.0
  0
CIRCLE
  5
10A
100
AcDbEntity
  8
0
370
    13
390
0
 62
     7
100
AcDbCircle
 10
136.364075
 20
46.552032
 30
0.0
 40
1.8
210
0.0
220
0.0
230
1.0
  0
LINE
  5
10B
100
AcDbEntity
  8
0
370
    13
390
0
 62
     7
 48
0.1
100
AcDbLine
 10
111.638947
 20
90.762169
 30
0.0
 11
111.638947
 21
86.762169
 31
0.0
210
0.0
220
0.0
230
1.0
  0
LINE
  5
10C
100
AcDbEntity
  8
0
370
    13
390
0
 62
     7
 48
0.3
100
AcDbLine
 10
111.638947
 20
86.762169
 30
0.0
 11
99.638947
 21
86.762169
 31
0.0
210
0.0
220
0.0
230
1.0
  0
LINE
  5
10D
100
AcDbEntity
  8
0
370
    13
390
0
 62
     7
 48
0.1
100
AcDbLine
 10
99.638947
 20
86.762169
 30
0.0
 11
99.638947
 21
90.762169
 31
0.0
210
0.0
220
0.0
230
1.0
  0
LINE
  5
10E
100
AcDbEntity
  8
0
370
    13
390
0
 62
     7
 48
0.3
100
AcDbLine
 10
99.638947
 20
90.762169
 30
0.0
 11
111.638947
 21
90.762169
 31
0.0
210
0.0
220
0.0
230
1.0
  0
CIRCLE
  5
10F
100
AcDbEntity
  8
0
370
    13
390
0
 62
     7
100
AcDbCircle
 10
18.346939
 20
109.658661
 30
0.0
 40
1.5
210
0.0
220
0.0
230
1.0
  0
CIRCLE
  5
110
100
AcDbEntity
  8
0
370
    13
390
0
 62
     7
100
AcDbCircle
 10
26.998871
 20
69.914864
 30
0.0
 40
1.5
210
0.0
220
0.0
230
1.0
  0
CIRCLE
  5
111
100
AcDbEntity
  8
0
370
    13
390
0
 62
     7
100
AcDbCircle
 10
33.844109
 20
57.702461
 30
0.0
 40
1.5
210
0.0
220
0.0
230
1.0
  0
ARC
  5
112
100
AcDbEntity
  8
0
370
    13
390
0
 62
     7
100
AcDbCircle
 10
43.330231
 20
53.765762
 30
0.0
 40
1.6
210
0.0
220
0.0
230
1.0
100
AcDbArc
 50
209.85467
 51
29.854661
  0
LINE
  5
113
100
AcDbEntity
  8
0
370
    13
390
0
 62
     7
100
AcDbLine
 10
41.942566
 20
52.969284
 30
0.0
 11
27.256523
 21
78.555916
 31
0.0
210
0.0
220
0.0
230
1.0
  0
ARC
  5
114
100
AcDbEntity
  8
0
370
    13
390
0
 62
     7
100
AcDbCircle
 10
28.644188
 20
79.352402
 30
0.0
 40
1.6
210
0.0
220
0.0
230
1.0
100
AcDbArc
 50
29.854661
 51
209.85467
  0
LINE
  5
115
100
AcDbEntity
  8
0
370
    13
390
0
 62
     7
100
AcDbLine
 10
30.031853
 20
80.148888
 30
0.0
 11
44.717896
 21
54.562248
 31
0.0
210
0.0
220
0.0
230
1.0
  0
CIRCLE
  5
116
100
AcDbEntity
  8
0
370
    13
390
0
 62
     7
100
AcDbCircle
 10
43.938583
 20
66.664284
 30
0.0
 40
1.8
210
0.0
220
0.0
230
1.0
  0
LINE
  5
117
100
AcDbEntity
  8
0
370
    13
390
0
 62
     7
 48
0.365
100
AcDbLine
 10
150.964081
 20
66.017097
 30
0.0
 11
136.364075
 21
66.017097
 31
0.0
210
0.0
220
0.0
230
1.0
  0
LINE
  5
118
100
AcDbEntity
  8
0
370
    13
390
0
 62
     7
 48
0.1125
100
AcDbLine
 10
136.364075
 20
66.017097
 30
0.0
 11
136.364075
 21
70.517097
 31
0.0
210
0.0
220
0.0
230
1.0
  0
LINE
  5
119
100
AcDbEntity
  8
0
370
    13
390
0
 62
     7
 48
0.365
100
AcDbLine
 10
150.964081
 20
70.517097
 30
0.0
 11
136.364075
 21
70.517097
 31
0.0
210
0.0
220
0.0
230
1.0
  0
LINE
  5
11A
100
AcDbEntity
  8
0
370
    13
390
0
 62
     7
 48
0.1125
100
AcDbLine
 10
150.964081
 20
66.017097
 30
0.0
 11
150.964081
 21
70.517097
 31
0.0
210
0.0
220
0.0
230
1.0
  0
LINE
  5
11B
100
AcDbEntity
  8
0
370
    13
390
0
 62
     7
 48
0.365
100
AcDbLine
 10
150.964081
 20
162.800217
 30
0.0
 11
136.364075
 21
162.800217
 31
0.0
210
0.0
220
0.0
230
1.0
  0
LINE
  5
11C
100
AcDbEntity
  8
0
370
    13
390
0
 62
     7
 48
0.1125
100
AcDbLine
 10
136.364075
 20
167.300217
 30
0.0
 11
136.364075
 21
162.800217
 31
0.0
210
0.0
220
0.0
230
1.0
  0
LINE
  5
11D
100
AcDbEntity
  8
0
370
    13
390
0
 62
     7
 48
0.365
100
AcDbLine
 10
150.964081
 20
167.300217
 30
0.0
 11
136.364075
 21
167.300217
 31
0.0
210
0.0
220
0.0
230
1.0
  0
LINE
  5
11E
100
AcDbEntity
  8
0
370
    13
390
0
 62
     7
 48
0.1125
100
AcDbLine
 10
150.964081
 20
167.300217
 30
0.0
 11
150.964081
 21
162.800217
 31
0.0
210
0.0
220
0.0
230
1.0
  0
LINE
  5
11F
100
AcDbEntity
  8
0
370
    13
390
0
 62
     7
 48
0.115
100
AcDbLine
 10
45.703629
 20
135.709244
 30
0.0
 11
45.703629
 21
131.109238
 31
0.0
210
0.0
220
0.0
230
1.0
  0
LINE
  5
120
100
AcDbEntity
  8
0
370
    13
390
0
 62
     7
 48
0.2
100
AcDbLine
 10
53.703629
 20
135.709244
 30
0.0
 11
45.703629
 21
135.709244
 31
0.0
210
0.0
220
0.0
230
1.0
  0
LINE
  5
121
100
AcDbEntity
  8
0
370
    13
390
0
 62
     7
 48
0.115
100
AcDbLine
 10
53.703629
 20
131.109238
 30
0.0
 11
53.703629
 21
135.709244
 31
0.0
210
0.0
220
0.0
230
1.0
  0
LINE
  5
122
100
AcDbEntity
  8
0
370
    13
390
0
 62
     7
 48
0.2
100
AcDbLine
 10
45.703629
 20
131.109238
 30
0.0
 11
53.703629
 21
131.109238
 31
0.0
210
0.0
220
0.0
230
1.0
  0
LINE
  5
123
100
AcDbEntity
  8
0
370
    13
390
0
 62
     7
 48
0.115
100
AcDbLine
 10
45.703629
 20
143.709244
 30
0.0
 11
45.703629
 21
139.109238
 31
0.0
210
0.0
220
0.0
230
1.0
  0
LINE
  5
124
100
AcDbEntity
  8
0
370
    13
390
0
 62
     7
 48
0.2
100
AcDbLine
 10
53.703629
 20
143.709244
 30
0.0
 11
45.703629
 21
143.709244
 31
0.0
210
0.0
220
0.0
230
1.0
  0
LINE
  5
125
100
AcDbEntity
  8
0
370
    13
390
0
 62
     7
 48
0.115
100
AcDbLine
 10
53.703629
 20
139.109238
 30
0.0
 11
53.703629
 21
143.709244
 31
0.0
210
0.0
220
0.0
230
1.0
  0
LINE
  5
126
100
AcDbEntity
  8
0
370
    13
390
0
 62
     7
 48
0.2
100
AcDbLine
 10
45.703629
 20
139.109238
 30
0.0
 11
53.703629
 21
139.109238
 31
0.0
210
0.0
220
0.0
230
1.0
  0
LINE
  5
127
100
AcDbEntity
  8
0
370
    13
390
0
 62
     7
 48
0.115
100
AcDbLine
 10
53.703629
 20
147.109238
 30
0.0
 11
53.703629
 21
151.709244
 31
0.0
210
0.0
220
0.0
230
1.0
  0
LINE
  5
128
100
AcDbEntity
  8
0
370
    13
390
0
 62
     7
 48
0.2
100
AcDbLine
 10
45.703629
 20
147.109238
 30
0.0
 11
53.703629
 21
147.109238
 31
0.0
210
0.0
220
0.0
230
1.0
  0
LINE
  5
129
100
AcDbEntity
  8
0
370
    13
390
0
 62
     7
 48
0.115
100
AcDbLine
 10
45.703629
 20
151.709244
 30
0.0
 11
45.703629
 21
147.109238
 31
0.0
210
0.0
220
0.0
230
1.0
  0
LINE
  5
12A
100
AcDbEntity
  8
0
370
    13
390
0
 62
     7
 48
0.2
100
AcDbLine
 10
53.703629
 20
151.709244
 30
0.0
 11
45.703629
 21
151.709244
 31
0.0
210
0.0
220
0.0
230
1.0
  0
LINE
  5
12B
100
AcDbEntity
  8
0
370
    13
390
0
 62
     7
 48
0.099682
100
AcDbLine
 10
88.180664
 20
142.100311
 30
0.0
 11
88.180664
 21
146.087585
 31
0.0
210
0.0
220
0.0
230
1.0
  0
LINE
  5
12C
100
AcDbEntity
  8
0
370
    13
390
0
 62
     7
 48
0.175
100
AcDbLine
 10
95.180664
 20
142.100311
 30
0.0
 11
88.180664
 21
142.100311
 31
0.0
210
0.0
220
0.0
230
1.0
  0
LINE
  5
12D
100
AcDbEntity
  8
0
370
    13
390
0
 62
     7
 48
0.1625
100
AcDbLine
 10
95.180664
 20
135.600311
 30
0.0
 11
95.180664
 21
142.100311
 31
0.0
210
0.0
220
0.0
230
1.0
  0
LINE
  5
12E
100
AcDbEntity
  8
0
370
    13
390
0
 62
     7
 48
0.175
100
AcDbLine
 10
88.180664
 20
135.600311
 30
0.0
 11
95.180664
 21
135.600311
 31
0.0
210
0.0
220
0.0
230
1.0
  0
LINE
  5
12F
100
AcDbEntity
  8
0
370
    13
390
0
 62
     7
 48
0.099173
100
AcDbLine
 10
88.180664
 20
131.633377
 30
0.0
 11
88.180664
 21
135.600311
 31
0.0
210
0.0
220
0.0
230
1.0
  0
LINE
  5
130
100
AcDbEntity
  8
0
370
    13
390
0
 62
     7
 48
0.1625
100
AcDbLine
 10
81.680664
 20
131.633377
 30
0.0
 11
88.180664
 21
131.633377
 31
0.0
210
0.0
220
0.0
230
1.0
  0
LINE
  5
131
100
AcDbEntity
  8
0
370
    13
390
0
 62
     7
 48
0.099173
100
AcDbLine
 10
81.680664
 20
135.600311
 30
0.0
 11
81.680664
 21
131.633377
 31
0.0
210
0.0
220
0.0
230
1.0
  0
LINE
  5
132
100
AcDbEntity
  8
0
370
    13
390
0
 62
     7
 48
0.175
100
AcDbLine
 10
74.680664
 20
135.600311
 30
0.0
 11
81.680664
 21
135.600311
 31
0.0
210
0.0
220
0.0
230
1.0
  0
LINE
  5
133
100
AcDbEntity
  8
0
370
    13
390
0
 62
     7
 48
0.1625
100
AcDbLine
 10
74.680664
 20
142.100311
 30
0.0
 11
74.680664
 21
135.600311
 31
0.0
210
0.0
220
0.0
230
1.0
  0
LINE
  5
134
100
AcDbEntity
  8
0
370
    13
390
0
 62
     7
 48
0.175
100
AcDbLine
 10
81.680664
 20
142.100311
 30
0.0
 11
74.680664
 21
142.100311
 31
0.0
210
0.0
220
0.0
230
1.0
  0
LINE
  5
135
100
AcDbEntity
  8
0
370
    13
390
0
 62
     7
 48
0.099682
100
AcDbLine
 10
81.680664
 20
146.087585
 30
0.0
 11
81.680664
 21
142.100311
 31
0.0
210
0.0
220
0.0
230
1.0
  0
LINE
  5
136
100
AcDbEntity
  8
0
370
    13
390
0
 62
     7
 48
0.1625
100
AcDbLine
 10
88.180664
 20
146.087585
 30
0.0
 11
81.680664
 21
146.087585
 31
0.0
210
0.0
220
0.0
230
1.0
  0
CIRCLE
  5
137
100
AcDbEntity
  8
0
370
    13
390
0
 62
     7
100
AcDbCircle
 10
136.364075
 20
186.765289
 30
0.0
 40
1.8
210
0.0
220
0.0
230
1.0
  0
LINE
  5
138
100
AcDbEntity
  8
0
370
    13
390
0
 62
     7
 48
0.1
100
AcDbLine
 10
111.638947
 20
142.555161
 30
0.0
 11
111.638947
 21
146.555161
 31
0.0
210
0.0
220
0.0
230
1.0
  0
LINE
  5
139
100
AcDbEntity
  8
0
370
    13
390
0
 62
     7
 48
0.3
100
AcDbLine
 10
99.638947
 20
142.555161
 30
0.0
 11
111.638947
 21
142.555161
 31
0.0
210
0.0
220
0.0
230
1.0
  0
LINE
  5
13A
100
AcDbEntity
  8
0
370
    13
390
0
 62
     7
 48
0.1
100
AcDbLine
 10
99.638947
 20
146.555161
 30
0.0
 11
99.638947
 21
142.555161
 31
0.0
210
0.0
220
0.0
230
1.0
  0
LINE
  5
13B
100
AcDbEntity
  8
0
370
    13
390
0
 62
     7
 48
0.3
100
AcDbLine
 10
111.638947
 20
146.555161
 30
0.0
 11
99.638947
 21
146.555161
 31
0.0
210
0.0
220
0.0
230
1.0
  0
CIRCLE
  5
13C
100
AcDbEntity
  8
0
370
    13
390
0
 62
     7
100
AcDbCircle
 10
18.346939
 20
123.658661
 30
0.0
 40
1.5
210
0.0
220
0.0
230
1.0
  0
CIRCLE
  5
13D
100
AcDbEntity
  8
0
370
    13
390
0
 62
     7
100
AcDbCircle
 10
26.998871
 20
163.402466
 30
0.0
 40
1.5
210
0.0
220
0.0
230
1.0
  0
CIRCLE
  5
13E
100
AcDbEntity
  8
0
370
    13
390
0
 62
     7
100
AcDbCircle
 10
33.844109
 20
175.614853
 30
0.0
 40
1.5
210
0.0
220
0.0
230
1.0
  0
ARC
  5
13F
100
AcDbEntity
  8
0
370
    13
390
0
 62
     7
100
AcDbCircle
 10
43.330231
 20
179.551559
 30
0.0
 40
1.6
210
0.0
220
0.0
230
1.0
100
AcDbArc
 50
330.145335
 51
150.145344
  0
LINE
  5
140
100
AcDbEntity
  8
0
370
    13
390
0
 62
     7
100
AcDbLine
 10
30.031853
 20
153.168442
 30
0.0
 11
44.717896
 21
178.755081
 31
0.0
210
0.0
220
0.0
230
1.0
  0
ARC
  5
141
100
AcDbEntity
  8
0
370
    13
390
0
 62
     7
100
AcDbCircle
 10
28.644188
 20
153.96492
 30
0.0
 40
1.6
210
0.0
220
0.0
230
1.0
100
AcDbArc
 50
150.145344
 51
330.145335
  0
LINE
  5
142
100
AcDbEntity
  8
0
370
    13
390
0
 62
     7
100
AcDbLine
 10
41.942566
 20
180.348038
 30
0.0
 11
27.256523
 21
154.761398
 31
0.0
210
0.0
220
0.0
230
1.0
  0
CIRCLE
  5
143
100
AcDbEntity
  8
0
370
    13
390
0
 62
     7
100
AcDbCircle
 10
43.938583
 20
166.653046
 30
0.0
 40
1.8
210
0.0
220
0.0
230
1.0
  0
CIRCLE
  5
144
100
AcDbEntity
  8
0
370
    13
390
0
 62
     7
100
AcDbCircle
 10
143.664078
 20
173.25209
 30
0.0
 40
1.8
210
0.0
220
0.0
230
1.0
  0
LINE
  5
145
100
AcDbEntity
  8
0
370
    13
390
0
 62
     7
100
AcDbLine
 10
261.854309
 20
147.357651
 30
0.0
 11
261.854309
 21
85.959679
 31
0.0
210
0.0
220
0.0
230
1.0
  0
ARC
  5
146
100
AcDbEntity
  8
0
370
    13
390
0
 62
     7
100
AcDbCircle
 10
260.254333
 20
85.959679
 30
0.0
 40
1.6
210
0.0
220
0.0
230
1.0
100
AcDbArc
 50
180.000009
 51
360.0
  0
LINE
  5
147
100
AcDbEntity
  8
0
370
    13
390
0
 62
     7
100
AcDbLine
 10
258.654297
 20
147.357651
 30
0.0
 11
258.654297
 21
85.959679
 31
0.0
210
0.0
220
0.0
230
1.0
  0
ARC
  5
148
100
AcDbEntity
  8
0
370
    13
390
0
 62
     7
100
AcDbCircle
 10
260.254333
 20
147.357651
 30
0.0
 40
1.6
210
0.0
220
0.0
230
1.0
100
AcDbArc
 50
0.0
 51
180.000009
  0
CIRCLE
  5
149
100
AcDbEntity
  8
0
370
    13
390
0
 62
     7
100
AcDbCircle
 10
180.582031
 20
74.361771
 30
0.0
 40
2.0
210
0.0
220
0.0
230
1.0
  0
CIRCLE
  5
14A
100
AcDbEntity
  8
0
370
    13
390
0
 62
     7
100
AcDbCircle
 10
198.582047
 20
74.363747
 30
0.0
 40
2.0
210
0.0
220
0.0
230
1.0
  0
CIRCLE
  5
14B
100
AcDbEntity
  8
0
370
    13
390
0
 62
     7
100
AcDbCircle
 10
150.964081
 20
46.552032
 30
0.0
 40
1.8
210
0.0
220
0.0
230
1.0
  0
CIRCLE
  5
14C
100
AcDbEntity
  8
0
370
    13
390
0
 62
     7
100
AcDbCircle
 10
268.981201
 20
109.658661
 30
0.0
 40
1.5
210
0.0
220
0.0
230
1.0
  0
CIRCLE
  5
14D
100
AcDbEntity
  8
0
370
    13
390
0
 62
     7
100
AcDbCircle
 10
260.329285
 20
69.914864
 30
0.0
 40
1.5
210
0.0
220
0.0
230
1.0
  0
CIRCLE
  5
14E
100
AcDbEntity
  8
0
370
    13
390
0
 62
     7
100
AcDbCircle
 10
253.484055
 20
57.702461
 30
0.0
 40
1.5
210
0.0
220
0.0
230
1.0
  0
ARC
  5
14F
100
AcDbEntity
  8
0
370
    13
390
0
 62
     7
100
AcDbCircle
 10
243.99794
 20
53.765762
 30
0.0
 40
1.6
210
0.0
220
0.0
230
1.0
100
AcDbArc
 50
150.145344
 51
330.145335
  0
LINE
  5
150
100
AcDbEntity
  8
0
370
    13
390
0
 62
     7
100
AcDbLine
 10
257.296326
 20
80.148888
 30
0.0
 11
242.610275
 21
54.562248
 31
0.0
210
0.0
220
0.0
230
1.0
  0
ARC
  5
151
100
AcDbEntity
  8
0
370
    13
390
0
 62
     7
100
AcDbCircle
 10
258.68396
 20
79.352402
 30
0.0
 40
1.6
210
0.0
220
0.0
230
1.0
100
AcDbArc
 50
330.145335
 51
150.145344
  0
LINE
  5
152
100
AcDbEntity
  8
0
370
    13
390
0
 62
     7
100
AcDbLine
 10
245.385605
 20
52.969284
 30
0.0
 11
260.071655
 21
78.555916
 31
0.0
210
0.0
220
0.0
230
1.0
  0
CIRCLE
  5
153
100
AcDbEntity
  8
0
370
    13
390
0
 62
     7
100
AcDbCircle
 10
243.389572
 20
66.664284
 30
0.0
 40
1.8
210
0.0
220
0.0
230
1.0
  0
CIRCLE
  5
154
100
AcDbEntity
  8
0
370
    13
390
0
 62
     7
100
AcDbCircle
 10
229.274734
 20
74.367119
 30
0.0
 40
1.8
210
0.0
220
0.0
230
1.0
  0
CIRCLE
  5
155
100
AcDbEntity
  8
0
370
    13
390
0
 62
     7
100
AcDbCircle
 10
229.274734
 20
158.950195
 30
0.0
 40
1.8
210
0.0
220
0.0
230
1.0
  0
CIRCLE
  5
156
100
AcDbEntity
  8
0
370
    13
390
0
 62
     7
100
AcDbCircle
 10
243.389572
 20
166.653046
 30
0.0
 40
1.8
210
0.0
220
0.0
230
1.0
  0
ARC
  5
157
100
AcDbEntity
  8
0
370
    13
390
0
 62
     7
100
AcDbCircle
 10
243.99794
 20
179.551559
 30
0.0
 40
1.6
210
0.0
220
0.0
230
1.0
100
AcDbArc
 50
29.854661
 51
209.85467
  0
LINE
  5
158
100
AcDbEntity
  8
0
370
    13
390
0
 62
     7
100
AcDbLine
 10
245.385605
 20
180.348038
 30
0.0
 11
260.071655
 21
154.761398
 31
0.0
210
0.0
220
0.0
230
1.0
  0
ARC
  5
159
100
AcDbEntity
  8
0
370
    13
390
0
 62
     7
100
AcDbCircle
 10
258.68396
 20
153.96492
 30
0.0
 40
1.6
210
0.0
220
0.0
230
1.0
100
AcDbArc
 50
209.85467
 51
29.854661
  0
LINE
  5
15A
100
AcDbEntity
  8
0
370
    13
390
0
 62
     7
100
AcDbLine
 10
257.296326
 20
153.168442
 30
0.0
 11
242.610275
 21
178.755081
 31
0.0
210
0.0
220
0.0
230
1.0
  0
CIRCLE
  5
15B
100
AcDbEntity
  8
0
370
    13
390
0
 62
     7
100
AcDbCircle
 10
253.484055
 20
175.614853
 30
0.0
 40
1.5
210
0.0
220
0.0
230
1.0
  0
CIRCLE
  5
15C
100
AcDbEntity
  8
0
370
    13
390
0
 62
     7
100
AcDbCircle
 10
260.329285
 20
163.402466
 30
0.0
 40
1.5
210
0.0
220
0.0
230
1.0
  0
CIRCLE
  5
15D
100
AcDbEntity
  8
0
370
    13
390
0
 62
     7
100
AcDbCircle
 10
268.981201
 20
123.658661
 30
0.0
 40
1.5
210
0.0
220
0.0
230
1.0
  0
CIRCLE
  5
15E
100
AcDbEntity
  8
0
370
    13
390
0
 62
     7
100
AcDbCircle
 10
150.964081
 20
186.765289
 30
0.0
 40
1.8
210
0.0
220
0.0
230
1.0
  0
CIRCLE
  5
15F
100
AcDbEntity
  8
0
370
    13
390
0
 62
     7
100
AcDbCircle
 10
198.582047
 20
158.953583
 30
0.0
 40
2.0
210
0.0
220
0.0
230
1.0
  0
CIRCLE
  5
160
100
AcDbEntity
  8
0
370
    13
390
0
 62
     7
100
AcDbCircle
 10
180.582031
 20
158.955551
 30
0.0
 40
2.0
210
0.0
220
0.0
230
1.0
  0
LINE
  5
161
100
AcDbEntity
  8
0
370
    35
390
0
 62
     7
100
AcDbLine
 10
248.887436
 20
115.694733
 30
0.0
 11
213.532089
 21
80.339394
 31
0.0
210
0.0
220
0.0
230
1.0
  0
LINE
  5
162
100
AcDbEntity
  8
0
370
    35
390
0
 62
     7
100
AcDbLine
 10
213.532089
 20
151.050079
 30
0.0
 11
248.887436
 21
115.694733
 31
0.0
210
0.0
220
0.0
230
1.0
  0
LINE
  5
163
100
AcDbEntity
  8
0
370
    35
390
0
 62
     7
100
AcDbLine
 10
178.176743
 20
115.694733
 30
0.0
 11
213.532089
 21
151.050079
 31
0.0
210
0.0
220
0.0
230
1.0
  0
LINE
  5
164
100
AcDbEntity
  8
0
370
    35
390
0
 62
     7
100
AcDbLine
 10
213.532089
 20
80.339394
 30
0.0
 11
178.176743
 21
115.694733
 31
0.0
210
0.0
220
0.0
230
1.0
  0
CIRCLE
  5
165
100
AcDbEntity
  8
0
370
    35
390
0
 62
     7
100
AcDbCircle
 10
188.321716
 20
81.655846
 30
0.0
 40
1.25
210
0.0
220
0.0
230
1.0
  0
CIRCLE
  5
166
100
AcDbEntity
  8
0
370
    35
390
0
 62
     7
100
AcDbCircle
 10
188.332977
 20
151.655838
 30
0.0
 40
1.25
210
0.0
220
0.0
230
1.0
  0
CIRCLE
  5
167
100
AcDbEntity
  8
0
370
    35
390
0
 62
     7
100
AcDbCircle
 10
238.332962
 20
151.59996
 30
0.0
 40
1.25
210
0.0
220
0.0
230
1.0
  0
CIRCLE
  5
168
100
AcDbEntity
  8
0
370
    35
390
0
 62
     7
100
AcDbCircle
 10
238.337448
 20
81.599968
 30
0.0
 40
1.25
210
0.0
220
0.0
230
1.0
  0
ENDSEC
  0
SECTION
  2
OBJECTS
  0
DICTIONARY
  5
19
100
AcDbDictionary
280
     0
281
     1
  3
ACAD_GROUP
350
1A
  3
ACAD_MLINESTYLE
350
1B
  3
ACAD_LAYOUT
350
1E
  3
ACAD_PLOTSETTINGS
350
22
  3
ACAD_PLOTSTYLENAME
350
1F
  3
ACAD_WIPEOUT_VARS
350
23
  0
DICTIONARY
  5
1A
102
{ACAD_REACTORS
330
19
102
}
100
AcDbDictionary
280
     0
281
     1
  0
DICTIONARY
  5
1B
102
{ACAD_REACTORS
330
19
102
}
100
AcDbDictionary
280
     0
281
     1
  3
Standard
350
1C
  0
MLINESTYLE
  5
1C
102
{ACAD_REACTORS
330
1B
102
}
100
AcDbMlineStyle
  2
Standard
 70
     0
  3

 62
     0
 51
90.0
 52
90.0
 71
     2
 49
0.5
 62
   256
  6
ByLayer
 49
-0.5
 62
   256
  6
ByLayer
  0
ACDBDICTIONARYWDFLT
  5
1F
102
{ACAD_REACTORS
330
19
102
}
100
AcDbDictionary
281
     1
  3
Normal
350
1D
100
AcDbDictionaryWithDefault
340
1D
  0
ACDBPLACEHOLDER
  5
1D
102
{ACAD_REACTORS
330
1F
102
}
  0
LAYOUT
  5
20
102
{ACAD_REACTORS
330
1E
102
}
100
AcDbPlotSettings
  1

  2

  4

  6

 40
0.0
 41
0.0
 42
0.0
 43
0.0
 44
0.0
 45
0.0
 46
0.0
 47
0.0
 48
0.0
 49
0.0
140
0.0
141
0.0
142
1.0
143
1.0
 70
  1024
 72
     0
 73
     0
 74
     0
  7

 75
     0
147
1.0
148
0.0
149
0.0
100
AcDbLayout
  1
Model
 70
     0
 71
     0
 10
0.0
 20
0.0
 11
0.0
 21
0.0
 12
0.0
 22
0.0
 32
0.0
 14
0.0
 24
0.0
 34
0.0
 15
0.0
 25
0.0
 35
0.0
146
0.0
 13
0.0
 23
0.0
 33
0.0
 16
0.0
 26
0.0
 36
0.0
 17
0.0
 27
0.0
 37
0.0
 76
     0
330
A
331
0
345
0
346
0
  0
LAYOUT
  5
21
102
{ACAD_REACTORS
330
1E
102
}
100
AcDbPlotSettings
  1

  2

  4

  6

 40
0.0
 41
0.0
 42
0.0
 43
0.0
 44
0.0
 45
0.0
 46
0.0
 47
0.0
 48
0.0
 49
0.0
140
0.0
141
0.0
142
1.0
143
1.0
 70
     0
 72
     0
 73
     0
 74
     0
  7

 75
     0
147
1.0
148
0.0
149
0.0
100
AcDbLayout
  1
Layout1
 70
     0
 71
     0
 10
0.0
 20
0.0
 11
0.0
 21
0.0
 12
0.0
 22
0.0
 32
0.0
 14
0.0
 24
0.0
 34
0.0
 15
0.0
 25
0.0
 35
0.0
146
0.0
 13
0.0
 23
0.0
 33
0.0
 16
0.0
 26
0.0
 36
0.0
 17
0.0
 27
0.0
 37
0.0
 76
     0
330
B
331
0
345
0
346
0
  0
DICTIONARY
  5
1E
102
{ACAD_REACTORS
330
19
102
}
100
AcDbDictionary
280
     0
281
     1
  3
Layout1
350
21
  3
Model
350
20
  0
DICTIONARY
  5
22
102
{ACAD_REACTORS
330
19
102
}
100
AcDbDictionary
280
     0
281
     1
  0
WIPEOUTVARIABLES
  5
23
100
AcDbWipeoutVariables
 70
     1
  0
ENDSEC
  0
EOF
